<?xml version="1.0" encoding="utf-8"?>
<!-- Generator: Adobe Illustrator 27.5.0, SVG Export Plug-In . SVG Version: 6.00 Build 0)  -->
<svg version="1.1" id="Layer" xmlns="http://www.w3.org/2000/svg" xmlns:xlink="http://www.w3.org/1999/xlink" x="0px" y="0px"
	 viewBox="171 308 231 58" style="enable-background:new 0 0 450 450;" xml:space="preserve">
<g>
	<path style="fill:#4F6D8C;" d="M204.915,342.35c0,0.409-0.437,0.767-0.975,0.767h-5.61c-0.539,0-0.715-0.358-0.419-0.767
		l1.725-2.378c0.157-0.216,0.566-0.382,0.923-0.382h3.711c0.356,0,0.645,0.166,0.645,0.382V342.35z"/>
	<rect x="173.431" y="345.157" style="fill:#4F6D8C;" width="15.268" height="2.753"/>
	<rect x="260.533" y="312.375" style="fill:#36556E;" width="3.254" height="2.615"/>
	<path style="fill:#4F6D8C;" d="M265.033,312.473c0,0.087-0.07,0.157-0.157,0.157h-5.342c-0.087,0-0.157-0.07-0.157-0.157v-1.938
		c0-0.087,0.07-0.157,0.157-0.157h5.342c0.087,0,0.157,0.07,0.157,0.157V312.473z"/>
	<rect x="306.758" y="333.612" style="fill:#36556E;" width="2.678" height="2.152"/>
	<path style="fill:#4F6D8C;" d="M310.461,333.693c0,0.071-0.058,0.129-0.129,0.129h-4.397c-0.071,0-0.129-0.058-0.129-0.129v-1.595
		c0-0.071,0.058-0.129,0.129-0.129h4.397c0.071,0,0.129,0.058,0.129,0.129V333.693z"/>
	<rect x="213.811" y="334.481" style="fill:#36556E;" width="1.429" height="1.149"/>
	<path style="fill:#4F6D8C;" d="M215.788,334.524c0,0.038-0.031,0.069-0.069,0.069h-2.347c-0.038,0-0.069-0.031-0.069-0.069v-0.851
		c0-0.038,0.031-0.069,0.069-0.069h2.347c0.038,0,0.069,0.031,0.069,0.069V334.524z"/>
	<polygon style="fill:#4F6D8C;" points="282.251,326.269 284.108,326.269 284.108,322.48 283.291,322.48 	"/>
	<polygon style="fill:#4F6D8C;" points="286.254,326.269 284.397,326.269 284.397,322.48 285.214,322.48 	"/>
	<polygon style="fill:#4F6D8C;" points="323.049,343.039 327.037,343.039 327.037,337.773 325.283,337.773 	"/>
	<polygon style="fill:#36556E;" points="330.643,343.039 326.655,343.039 326.655,337.773 328.41,337.773 	"/>
	<rect x="238.257" y="312.375" style="fill:#36556E;" width="3.254" height="2.615"/>
	<path style="fill:#5C789A;" d="M276.677,336.647l-10.598-21.78c-0.149-0.206-0.911-0.371-1.703-0.371h-27.177
		c-0.792,0-1.554,0.166-1.703,0.371l-13.602,21.78H276.677z"/>
	<path style="fill:#396384;" d="M275.972,335.197l-9.892-20.33c-0.092-0.127-4.873-0.239-5.296-0.305l8.51,20.635H275.972z"/>
	<path style="fill:#4F6D8C;" d="M299.042,346.835l-8.559-20.273c-0.149-0.237-0.911-0.428-1.703-0.428h-23.432l8.74,20.701H299.042z
		"/>
	<path style="fill:#36556E;" d="M316.83,343.832l-4.966-7.884c-0.149-0.237-0.911-0.428-1.703-0.428h-95.488
		c-0.792,0-1.554,0.191-1.703,0.428l-4.966,7.884H316.83z"/>
	<g>
		<g>
			<g>
				
					<rect x="359.943" y="339.024" transform="matrix(0.7961 -0.6051 0.6051 0.7961 -130.8917 289.7627)" style="fill:#36556E;" width="9.257" height="0.21"/>
				
					<rect x="362.217" y="339.187" transform="matrix(0.7961 -0.6052 0.6052 0.7961 -131.3838 289.4156)" style="fill:#4F6D8C;" width="3.151" height="0.98"/>
				<path style="fill:#5C789A;" d="M364.398,345.259l-7.372,1.218c-1.422-0.988-0.892-2.53-0.3-4.15
					c0.608-1.663,1.192-2.857,2.611-2.857h2.401c1.174,0,1.737,0.803,2.516,2.114C364.96,342.775,365.059,344.191,364.398,345.259z"
					/>
			</g>
			<g>
				
					<rect x="339.294" y="336.959" transform="matrix(0.7961 -0.6052 0.6052 0.7961 -133.8527 276.8503)" style="fill:#36556E;" width="9.257" height="0.21"/>
				
					<rect x="341.567" y="337.122" transform="matrix(0.7961 -0.6052 0.6052 0.7961 -134.3458 276.5075)" style="fill:#4F6D8C;" width="3.151" height="0.98"/>
				<path style="fill:#5C789A;" d="M343.749,343.194l-7.372,1.218c-1.422-0.988-0.892-2.53-0.3-4.15
					c0.608-1.663,1.192-2.857,2.611-2.857h2.401c1.174,0,1.737,0.803,2.516,2.113C344.311,340.71,344.409,342.126,343.749,343.194z"
					/>
			</g>
			<rect x="196.68" y="342.591" style="fill:#4F6D8C;" width="158.256" height="11.157"/>
			<path style="fill:#274152;" d="M361.063,341.87l-1.681,1.883H205.72c-0.928,2.203-5.383,3.874-10.744,3.874h-22.544l1.861,5.423
				H389.83l11.622-13.016L361.063,341.87z"/>
			<path style="fill:#E4355C;" d="M389.774,352.773H174.134l0.941,3.468c0.167,0,2.335,0.005,2.573,0.011l1.216,5.904h3.672
				l1.149-5.581c2.075,0.133,4.517,0.3,7.214,0.492v1.826h-2.856v1.02h38.894c7.931,0.915,9.449,1.836,9.449,1.836
				s78.811,0,128.097,0c4.231,0,9.71,3.672,15.706,3.672c8.159,0,8.977,0.208,6.935-3.468
				C385.083,358.281,389.774,352.773,389.774,352.773z M193.141,357.228c6.6,0.477,14.427,1.073,22.074,1.665h-22.074V357.228z"/>
			<polygon style="fill:#04090D;" points="202.026,346.775 172.261,346.775 172.113,346.078 202.026,346.078 			"/>
		</g>
		<g>
			<path style="fill:#F2736D;" d="M386.612,359.697c0.094-3.32,3.162-6.923,3.162-6.923H174.134l0.593,2.186L386.612,359.697z"/>
		</g>
		<polygon style="fill:#19313D;" points="172.844,348.829 174.293,353.051 389.83,353.051 400.526,341.071 340.127,349.036 		"/>
	</g>
	<path style="fill:#4F6D8C;" d="M267.041,314.246c0,0.276-0.224,0.501-0.501,0.501h-32.288c-0.276,0-0.501-0.224-0.501-0.501l0,0
		c0-0.277,0.224-0.501,0.501-0.501h32.288C266.817,313.745,267.041,313.969,267.041,314.246L267.041,314.246z"/>
	<path style="fill:#36556E;" d="M291.226,326.182c0,0.276-0.224,0.501-0.501,0.501h-25.548c-0.276,0-0.5-0.224-0.5-0.501l0,0
		c0-0.277,0.224-0.501,0.5-0.501h25.548C291.002,325.681,291.226,325.905,291.226,326.182L291.226,326.182z"/>
	<path style="fill:#4F6D8C;" d="M312.399,335.786c0,0.276-0.224,0.501-0.501,0.501h-98.882c-0.276,0-0.501-0.224-0.501-0.501l0,0
		c0-0.277,0.224-0.501,0.501-0.501h98.882C312.175,335.286,312.399,335.51,312.399,335.786L312.399,335.786z"/>
	<path style="fill:#4F6D8C;" d="M259.783,319.877c0,0.207-0.168,0.375-0.375,0.375h-18.271c-0.207,0-0.375-0.168-0.375-0.375v-2.753
		c0-0.207,0.168-0.375,0.375-0.375h18.271c0.207,0,0.375,0.168,0.375,0.375V319.877z"/>
	<path style="fill:#4F6D8C;" d="M259.783,326.51c0,0.207-0.168,0.375-0.375,0.375h-18.271c-0.207,0-0.375-0.168-0.375-0.375v-4.63
		c0-0.207,0.168-0.376,0.375-0.376h18.271c0.207,0,0.375,0.168,0.375,0.376V326.51z"/>
	<path style="fill:#4F6D8C;" d="M242.756,312.473c0,0.087-0.07,0.157-0.157,0.157h-5.342c-0.087,0-0.157-0.07-0.157-0.157v-1.938
		c0-0.087,0.07-0.157,0.157-0.157h5.342c0.087,0,0.157,0.07,0.157,0.157V312.473z"/>
	<rect x="235.504" y="317.249" style="fill:#4F6D8C;" width="3.504" height="2.753"/>
	<rect x="235.504" y="321.254" style="fill:#4F6D8C;" width="3.504" height="2.753"/>
	<rect x="235.504" y="324.816" style="fill:#4F6D8C;" width="2.002" height="3.638"/>
	<polygon style="fill:#36556E;" points="267.06,320.253 265.058,320.253 264.018,316.614 266.021,316.614 	"/>
	<polygon style="fill:#36556E;" points="268.562,324.575 266.56,324.575 265.52,320.936 267.522,320.936 	"/>
	<rect x="273.799" y="328.262" style="fill:#36556E;" width="15.518" height="0.751"/>
	<polygon style="fill:#4F6D8C;" points="247.236,313.995 249.836,313.995 249.836,308.691 248.692,308.691 	"/>
	<polygon style="fill:#4F6D8C;" points="252.84,313.995 250.24,313.995 250.24,308.691 251.383,308.691 	"/>
	<path style="fill:#36556E;" d="M329.4,334.984c0.056,0.195,0.087,0.402,0.087,0.619c0,1.075-0.743,1.947-1.66,1.947h-1.931
		c-0.917,0-1.66-0.871-1.66-1.947c0-0.216,0.031-0.424,0.087-0.619c-0.334,0.349-0.54,0.822-0.54,1.343
		c0,1.075,0.871,1.947,1.947,1.947h2.263c1.075,0,1.947-0.871,1.947-1.947C329.94,335.806,329.733,335.334,329.4,334.984z"/>
	<circle style="fill:#5C789A;" cx="326.929" cy="335.173" r="2.422"/>
	<rect x="251.022" y="328.512" style="fill:#36556E;" width="7.008" height="1.502"/>
	<rect x="243.263" y="330.515" style="fill:#36556E;" width="5.506" height="1.001"/>
	<rect x="253.525" y="332.267" style="fill:#36556E;" width="11.263" height="1.001"/>
	<rect x="229.497" y="326.76" style="fill:#36556E;" width="9.261" height="2.253"/>
	<rect x="207.149" y="344.494" style="fill:#04090D;" width="3.147" height="1.076"/>
	<rect x="211.905" y="344.494" style="fill:#04090D;" width="3.147" height="1.076"/>
	<rect x="216.66" y="344.494" style="fill:#04090D;" width="3.147" height="1.076"/>
	<rect x="221.416" y="344.494" style="fill:#04090D;" width="3.147" height="1.076"/>
	<rect x="226.172" y="344.494" style="fill:#04090D;" width="3.146" height="1.076"/>
	<rect x="230.927" y="344.494" style="fill:#04090D;" width="3.147" height="1.076"/>
	<rect x="234.503" y="345.783" style="fill:#36556E;" width="11.013" height="3.133"/>
	<rect x="232.884" y="345.326" style="fill:#5C789A;" width="14.016" height="0.501"/>
	<rect x="251.022" y="345.783" style="fill:#36556E;" width="11.013" height="3.133"/>
	<rect x="249.404" y="345.326" style="fill:#5C789A;" width="14.016" height="0.501"/>
</g>
</svg>