<?xml version="1.0" encoding="utf-8"?>
<!-- Generator: Adobe Illustrator 27.5.0, SVG Export Plug-In . SVG Version: 6.00 Build 0)  -->
<svg version="1.1" id="Layer" xmlns="http://www.w3.org/2000/svg" xmlns:xlink="http://www.w3.org/1999/xlink" x="0px" y="0px"
	 viewBox="380 245 27 37" style="enable-background:new 0 0 450 450;" xml:space="preserve">
<g>
	<path style="fill:#F2736D;" d="M390.853,253.92c0,1.135,0.92,2.054,2.054,2.054l0,0c1.135,0,2.055-0.92,2.055-2.054v-6.164
		c0-1.135-0.92-2.054-2.055-2.054l0,0c-1.134,0-2.054,0.92-2.054,2.054V253.92z"/>
	<polygon style="fill:#E9F3F4;" points="380.171,282.086 405.634,282.086 397.608,249.703 388.197,249.703 	"/>
	<polygon style="fill:#E4355C;" points="387.161,253.884 388.197,249.703 397.608,249.703 398.644,253.884 	"/>
	<polygon style="fill:#E4355C;" points="400.368,260.84 402.005,267.443 383.8,267.443 385.437,260.84 	"/>
	<polygon style="fill:#E4355C;" points="403.729,274.399 405.634,282.086 380.171,282.086 382.076,274.399 	"/>
	<g style="opacity:0.3;">
		<polygon style="fill:#FFFFFF;" points="393.304,249.703 397.608,249.703 405.634,282.086 393.304,282.086 		"/>
	</g>
	<path style="fill:#E9F3F4;" d="M386.744,248.938c0,0.454,0.368,0.822,0.822,0.822h10.478c0.454,0,0.822-0.368,0.822-0.822l0,0
		c0-0.454-0.368-0.822-0.822-0.822h-10.478C387.112,248.116,386.744,248.484,386.744,248.938L386.744,248.938z"/>
</g>
</svg>