<?xml version="1.0" encoding="utf-8"?>
<!-- Generator: Adobe Illustrator 27.5.0, SVG Export Plug-In . SVG Version: 6.00 Build 0)  -->
<svg version="1.1" id="Layer" xmlns="http://www.w3.org/2000/svg" xmlns:xlink="http://www.w3.org/1999/xlink" x="0px" y="0px"
	 viewBox="125 329 16 21" style="enable-background:new 0 0 450 450;" xml:space="preserve">
<g>
	<g>
		<path style="fill:#E4355C;" d="M131.065,331.007c0,1.081,0.851,1.957,1.9,1.957c1.049,0,1.9-0.876,1.9-1.957
			c0-1.081-0.851-1.957-1.9-1.957C131.916,329.049,131.065,329.926,131.065,331.007z M131.977,331.007
			c0-0.561,0.443-1.018,0.988-1.018c0.545,0,0.988,0.457,0.988,1.018c0,0.561-0.443,1.018-0.988,1.018
			C132.421,332.024,131.977,331.568,131.977,331.007z"/>
		<g style="opacity:0.3;">
			<path style="fill:#E9F3F4;" d="M133.013,332.02c0.522-0.026,0.941-0.468,0.941-1.013s-0.418-0.987-0.941-1.013v-0.942
				c1.027,0.026,1.853,0.89,1.853,1.955c0,1.065-0.826,1.929-1.853,1.955V332.02z"/>
		</g>
	</g>
	<g>
		<ellipse style="fill:#E9F3F4;" cx="132.991" cy="340.428" rx="7.904" ry="8.142"/>
		<path style="fill:#E4355C;" d="M129.455,333.148c1.064-0.55,2.264-0.862,3.536-0.862c1.272,0,2.472,0.312,3.536,0.862H129.455z"/>
		<path style="fill:#E4355C;" d="M140.116,336.909c0.468,1.005,0.744,2.122,0.773,3.304h-15.798c0.03-1.181,0.305-2.299,0.773-3.304
			H140.116z"/>
		<path style="fill:#E4355C;" d="M137.76,346.916h-9.539c-1.001-0.783-1.817-1.806-2.364-2.987h14.266
			C139.577,345.11,138.761,346.133,137.76,346.916z"/>
		<g style="opacity:0.3;">
			<path style="fill:#E9F3F4;" d="M133.038,332.286c4.344,0.026,7.857,3.66,7.857,8.141c0,4.481-3.514,8.115-7.857,8.141V332.286z"
				/>
		</g>
	</g>
</g>
</svg>