<?xml version="1.0" encoding="utf-8"?>
<!-- Generator: Adobe Illustrator 27.5.0, SVG Export Plug-In . SVG Version: 6.00 Build 0)  -->
<svg version="1.1" id="Layer" xmlns="http://www.w3.org/2000/svg" xmlns:xlink="http://www.w3.org/1999/xlink" x="0px" y="0px"
	 viewBox="35 208 283 84" style="enable-background:new 0 0 450 450;" xml:space="preserve">
<g>
	<g>
		
			<rect x="183.515" y="217.406" transform="matrix(0.7603 -0.6496 0.6496 0.7603 -108.7396 175.6287)" style="fill:#254254;" width="0.145" height="35.476"/>
		
			<rect x="181.77" y="218.715" transform="matrix(0.8276 -0.5614 0.5614 0.8276 -101.381 142.8522)" style="fill:#254254;" width="0.145" height="35.476"/>
		<circle style="fill:#254254;" cx="213.102" cy="233.836" r="2.036"/>
		<g>
			<rect x="191.438" y="233.109" style="fill:#466480;" width="3.053" height="9.014"/>
			<rect x="196.673" y="223.658" style="fill:#254254;" width="0.291" height="14.927"/>
			<rect x="201.034" y="223.658" style="fill:#254254;" width="0.291" height="14.927"/>
			<rect x="195.3" y="233.109" style="fill:#466480;" width="3.544" height="9.014"/>
			<rect x="199.808" y="233.109" style="fill:#466480;" width="3.544" height="9.014"/>
			<polygon style="fill:#254254;" points="205.985,255.535 190.929,255.535 190.929,240.224 204.709,240.224 			"/>
			<polygon style="fill:#254254;" points="186.846,259.108 171.79,259.108 171.79,243.796 185.57,243.796 			"/>
			<rect x="140.842" y="242.705" style="fill:#254254;" width="14.539" height="11.631"/>
			<rect x="136.626" y="234.854" style="fill:#254254;" width="1.018" height="11.631"/>
			<rect x="141.367" y="235.29" style="fill:#254254;" width="3.966" height="11.631"/>
			<rect x="142.677" y="230.783" style="fill:#254254;" width="1.346" height="10.468"/>
			<polygon style="fill:#466480;" points="127.824,251.719 147.53,251.719 147.53,238.924 131.682,238.924 			"/>
			<polygon style="fill:#3B5972;" points="222.202,258.453 207.146,258.453 207.146,243.141 220.926,243.141 			"/>
			<polygon style="fill:#254254;" points="228.696,254.769 213.641,254.769 213.641,239.458 227.421,239.458 			"/>
			<polygon style="fill:#254254;" points="153.161,259.108 138.105,259.108 138.105,243.796 151.885,243.796 			"/>
			<rect x="127.388" y="248.645" style="fill:#3B5972;" width="32.919" height="19.905"/>
			<rect x="177.914" y="248.645" style="fill:#3B5972;" width="52.058" height="19.905"/>
			<polygon style="fill:#466480;" points="232.524,254.514 212.365,262.425 212.365,243.796 230.483,243.796 			"/>
			<polygon style="fill:#466480;" points="214.406,252.983 155.713,252.983 155.713,256.811 129.939,256.811 129.939,270.846 
				188.632,270.846 188.632,267.018 214.406,267.018 			"/>
			<rect x="178.68" y="254.514" style="fill:#254254;" width="53.844" height="19.904"/>
			<polygon style="fill:#254254;" points="164.39,271.612 164.134,260.639 153.013,260.639 150.609,258.342 91.917,258.342 
				91.917,269.315 105.442,269.315 105.442,271.612 			"/>
			<rect x="132.361" y="241.59" style="fill:#254254;" width="4.362" height="1.163"/>
			<rect x="137.304" y="241.59" style="fill:#254254;" width="4.362" height="1.163"/>
			<rect x="142.247" y="241.59" style="fill:#254254;" width="4.362" height="1.163"/>
			<rect x="132.458" y="239.52" style="fill:#254254;" width="4.362" height="0.457"/>
			<rect x="137.401" y="239.52" style="fill:#254254;" width="4.362" height="0.457"/>
			<rect x="142.344" y="239.52" style="fill:#254254;" width="4.362" height="0.457"/>
			<g>
				<g>
					<rect x="142.158" y="237.909" style="fill:#3B5972;" width="2.232" height="5.898"/>
				</g>
				<g>
					<rect x="144.98" y="237.909" style="fill:#3B5972;" width="2.59" height="5.898"/>
				</g>
				<g>
					<rect x="148.275" y="237.909" style="fill:#3B5972;" width="2.59" height="5.898"/>
				</g>
			</g>
			<path style="fill:#254254;" d="M140.329,257.244c0,0.401-0.161,0.727-0.359,0.727h-1.725c-0.199,0-0.359-0.326-0.359-0.727l0,0
				c0-0.401,0.161-0.727,0.359-0.727h1.725C140.169,256.517,140.329,256.842,140.329,257.244L140.329,257.244z"/>
			<path style="fill:#254254;" d="M142.917,257.244c0,0.401-0.161,0.727-0.359,0.727h-1.725c-0.199,0-0.359-0.326-0.359-0.727l0,0
				c0-0.401,0.161-0.727,0.359-0.727h1.725C142.756,256.517,142.917,256.842,142.917,257.244L142.917,257.244z"/>
			<path style="fill:#254254;" d="M145.505,257.244c0,0.401-0.161,0.727-0.359,0.727h-1.725c-0.199,0-0.359-0.326-0.359-0.727l0,0
				c0-0.401,0.161-0.727,0.359-0.727h1.725C145.344,256.517,145.505,256.842,145.505,257.244L145.505,257.244z"/>
			<path style="fill:#254254;" d="M148.092,257.244c0,0.401-0.161,0.727-0.359,0.727h-1.725c-0.199,0-0.359-0.326-0.359-0.727l0,0
				c0-0.401,0.161-0.727,0.359-0.727h1.725C147.932,256.517,148.092,256.842,148.092,257.244L148.092,257.244z"/>
			<path style="fill:#254254;" d="M150.68,257.244c0,0.401-0.161,0.727-0.359,0.727h-1.725c-0.199,0-0.359-0.326-0.359-0.727l0,0
				c0-0.401,0.161-0.727,0.359-0.727h1.725C150.519,256.517,150.68,256.842,150.68,257.244L150.68,257.244z"/>
			<path style="fill:#254254;" d="M140.329,255.596c0,0.402-0.161,0.727-0.359,0.727h-1.725c-0.199,0-0.359-0.325-0.359-0.727l0,0
				c0-0.402,0.161-0.727,0.359-0.727h1.725C140.169,254.869,140.329,255.195,140.329,255.596L140.329,255.596z"/>
			<path style="fill:#254254;" d="M142.917,255.596c0,0.402-0.161,0.727-0.359,0.727h-1.725c-0.199,0-0.359-0.325-0.359-0.727l0,0
				c0-0.402,0.161-0.727,0.359-0.727h1.725C142.756,254.869,142.917,255.195,142.917,255.596L142.917,255.596z"/>
			<path style="fill:#254254;" d="M145.505,255.596c0,0.402-0.161,0.727-0.359,0.727h-1.725c-0.199,0-0.359-0.325-0.359-0.727l0,0
				c0-0.402,0.161-0.727,0.359-0.727h1.725C145.344,254.869,145.505,255.195,145.505,255.596L145.505,255.596z"/>
			<path style="fill:#254254;" d="M148.092,255.596c0,0.402-0.161,0.727-0.359,0.727h-1.725c-0.199,0-0.359-0.325-0.359-0.727l0,0
				c0-0.402,0.161-0.727,0.359-0.727h1.725C147.932,254.869,148.092,255.195,148.092,255.596L148.092,255.596z"/>
			<path style="fill:#254254;" d="M150.68,255.596c0,0.402-0.161,0.727-0.359,0.727h-1.725c-0.199,0-0.359-0.325-0.359-0.727l0,0
				c0-0.402,0.161-0.727,0.359-0.727h1.725C150.519,254.869,150.68,255.195,150.68,255.596L150.68,255.596z"/>
			<path style="fill:#254254;" d="M152.752,256.074c0.165,1.422,0.889,2.494,1.757,2.494h12.019c0.868,0,1.592-1.071,1.757-2.494
				H152.752z"/>
			<rect x="115.689" y="259.134" style="fill:#3B5972;" width="1.454" height="2.617"/>
			<rect x="118.161" y="259.134" style="fill:#3B5972;" width="1.454" height="2.617"/>
			<rect x="120.632" y="259.134" style="fill:#3B5972;" width="1.454" height="2.617"/>
			<rect x="123.104" y="259.134" style="fill:#3B5972;" width="1.454" height="2.617"/>
			<rect x="125.576" y="259.134" style="fill:#3B5972;" width="1.454" height="2.617"/>
			<rect x="128.047" y="259.134" style="fill:#3B5972;" width="1.454" height="2.617"/>
			<rect x="130.519" y="259.134" style="fill:#3B5972;" width="1.454" height="2.617"/>
			<rect x="132.991" y="259.134" style="fill:#3B5972;" width="1.454" height="2.617"/>
			<rect x="135.462" y="259.134" style="fill:#3B5972;" width="1.454" height="2.617"/>
			<rect x="137.934" y="259.134" style="fill:#3B5972;" width="1.454" height="2.617"/>
			<rect x="140.406" y="259.134" style="fill:#3B5972;" width="1.454" height="2.617"/>
			<rect x="142.877" y="259.134" style="fill:#3B5972;" width="1.454" height="2.617"/>
			<rect x="145.349" y="259.134" style="fill:#3B5972;" width="1.454" height="2.617"/>
			<rect x="147.821" y="259.134" style="fill:#3B5972;" width="1.454" height="2.617"/>
			<rect x="127.902" y="249.247" style="fill:#254254;" width="12.649" height="0.727"/>
			<rect x="133.718" y="251.137" style="fill:#254254;" width="2.617" height="2.908"/>
			<rect x="131.682" y="253.609" style="fill:#254254;" width="0.727" height="4.507"/>
			<rect x="132.845" y="243.868" style="fill:#254254;" width="1.308" height="3.489"/>
			<rect x="134.736" y="243.868" style="fill:#254254;" width="1.309" height="3.489"/>
			<rect x="136.626" y="243.868" style="fill:#254254;" width="1.308" height="3.489"/>
			<rect x="138.516" y="243.868" style="fill:#254254;" width="1.308" height="3.489"/>
			<rect x="141.569" y="245.613" style="fill:#254254;" width="1.308" height="2.036"/>
			<rect x="143.75" y="245.613" style="fill:#254254;" width="1.308" height="2.036"/>
			<rect x="145.931" y="245.613" style="fill:#254254;" width="1.308" height="2.036"/>
			<polygon style="fill:#3B5972;" points="119.251,256.444 116.743,256.444 116.525,256.444 114.017,256.444 113.799,256.444 
				111.291,256.444 111.073,256.444 108.565,256.444 108.347,256.444 105.839,256.444 105.621,256.444 103.113,256.444 
				102.895,256.444 100.386,256.444 100.168,256.444 97.66,256.444 97.442,256.444 94.934,256.444 94.716,256.444 92.208,256.444 
				91.99,256.444 91.99,256.662 91.99,258.334 92.208,258.334 92.208,256.662 94.716,256.662 94.716,258.334 94.934,258.334 
				94.934,256.662 97.442,256.662 97.442,258.334 97.66,258.334 97.66,256.662 100.168,256.662 100.168,258.334 100.386,258.334 
				100.386,256.662 100.641,256.662 100.641,258.262 101.295,258.262 101.295,256.662 102.895,256.662 102.895,258.334 
				103.113,258.334 103.113,256.662 105.621,256.662 105.621,258.334 105.839,258.334 105.839,256.662 106.529,256.662 
				106.529,258.262 107.184,258.262 107.184,256.662 108.347,256.662 108.347,258.334 108.565,258.334 108.565,256.662 
				111.073,256.662 111.073,258.334 111.291,258.334 111.291,256.662 113.799,256.662 113.799,258.334 114.017,258.334 
				114.017,256.662 116.525,256.662 116.525,258.334 116.743,258.334 116.743,256.662 119.251,256.662 119.251,258.334 
				119.469,258.334 119.469,256.444 			"/>
			<rect x="140.048" y="245.289" style="fill:#466480;" width="1.408" height="2.914"/>
			<rect x="143.059" y="245.289" style="fill:#466480;" width="1.408" height="2.914"/>
			<rect x="146.071" y="245.289" style="fill:#466480;" width="1.408" height="2.914"/>
			<rect x="149.082" y="245.289" style="fill:#466480;" width="1.408" height="2.914"/>
			<rect x="153.224" y="241.223" style="fill:#254254;" width="1.173" height="1.477"/>
			<rect x="151.348" y="241.223" style="fill:#254254;" width="1.173" height="1.477"/>
			<rect x="181.213" y="240.33" style="fill:#466480;" width="1.745" height="12.601"/>
			<rect x="180.049" y="246.243" style="fill:#466480;" width="3.877" height="3.005"/>
			<rect x="179.08" y="248.472" style="fill:#254254;" width="5.719" height="2.132"/>
			<rect x="178.402" y="250.192" style="fill:#466480;" width="7.27" height="2.665"/>
			<rect x="203.662" y="253.732" style="fill:#466480;" width="0.372" height="8.938"/>
			<rect x="206.362" y="253.732" style="fill:#466480;" width="0.372" height="8.938"/>
			<rect x="172.939" y="253.081" style="fill:#254254;" width="0.465" height="9.403"/>
			<rect x="175.871" y="253.081" style="fill:#254254;" width="0.465" height="9.403"/>
			<rect x="184.669" y="246.843" style="fill:#466480;" width="27.744" height="0.465"/>
			<rect x="185.786" y="246.834" style="fill:#466480;" width="0.279" height="1.789"/>
			<rect x="189.045" y="246.834" style="fill:#466480;" width="0.279" height="1.789"/>
			<rect x="192.304" y="246.834" style="fill:#466480;" width="0.279" height="1.789"/>
			<rect x="195.563" y="246.834" style="fill:#466480;" width="0.279" height="1.789"/>
			<rect x="198.822" y="246.834" style="fill:#466480;" width="0.279" height="1.789"/>
			<rect x="202.08" y="246.834" style="fill:#466480;" width="0.279" height="1.789"/>
			<rect x="205.339" y="246.834" style="fill:#466480;" width="0.279" height="1.789"/>
			<rect x="208.598" y="246.834" style="fill:#466480;" width="0.279" height="1.789"/>
			<rect x="178.208" y="262.146" style="fill:#466480;" width="54.236" height="0.372"/>
		</g>
		<g>
			<rect x="265.114" y="258.93" style="fill:#254254;" width="17.67" height="0.263"/>
			<rect x="267.742" y="258.404" style="fill:#3B5972;" width="3.942" height="1.226"/>
			<path style="fill:#466480;" d="M269.623,262.258h-4.263c-0.913-0.458-1.654-1.32-1.867-2.321
				c-0.314-1.475,0.627-2.672,2.102-2.672h2.749c1.475,0,1.842,1.196,2.156,2.672C270.714,260.939,270.341,261.801,269.623,262.258z
				"/>
		</g>
		<rect x="61.894" y="261.169" style="fill:#466480;" width="108.753" height="13.958"/>
		<path style="fill:#29516A;" d="M267.547,260.268l-2.103,2.356H73.202c-1.161,2.756-6.735,4.846-13.441,4.846H36.292l0.885,6.785
			h266.359l14.539-16.284L267.547,260.268z"/>
		<path style="fill:#E4355C;" d="M303.466,273.908H37.052l0.255,4.338c0.209,0,0.478,0.006,0.776,0.014l1.521,7.387h4.593
			l1.438-6.982c2.596,0.166,5.651,0.375,9.025,0.615v2.284h-3.573v1.276h48.658c9.922,1.144,11.821,2.297,11.821,2.297
			s98.597,0,160.257,0c5.293,0,12.148,4.593,19.649,4.593c10.207,0,11.231,0.261,8.676-4.338
			C297.597,280.798,303.466,273.908,303.466,273.908z M57.466,279.481c8.257,0.597,18.049,1.343,27.615,2.083H57.466V279.481z"/>
		<rect x="69.334" y="258.504" style="fill:#254254;" width="5.234" height="2.66"/>
		<rect x="70.281" y="256.032" style="fill:#254254;" width="3.342" height="1.642"/>
		<rect x="68.633" y="258.407" style="fill:#3B5972;" width="6.783" height="1.212"/>
		<rect x="37.846" y="262.595" style="fill:#466480;" width="3.489" height="4.943"/>
		<rect x="43.715" y="262.595" style="fill:#466480;" width="3.489" height="4.943"/>
		<rect x="37.846" y="263.083" style="fill:#254254;" width="3.489" height="0.99"/>
		<g>
			<rect x="47.85" y="264.134" style="fill:#254254;" width="9.986" height="0.263"/>
			<rect x="51.266" y="263.609" style="fill:#3B5972;" width="3.942" height="1.226"/>
			<path style="fill:#466480;" d="M53.326,267.462h4.263c0.912-0.457,1.653-1.32,1.867-2.321c0.314-1.475-0.627-2.672-2.102-2.672
				h-2.749c-1.475,0-1.842,1.196-2.156,2.672C52.235,266.143,52.609,267.005,53.326,267.462z"/>
		</g>
		<rect x="43.715" y="263.083" style="fill:#254254;" width="3.489" height="0.99"/>
		<rect x="36.305" y="265.531" style="fill:#254254;" width="32.277" height="0.872"/>
		<path style="fill:#466480;" d="M75.674,258.866c-3.344,0-6.946,0-9.839,0c-2.045,0,0.24-2.167,4.74-2.167
			c4.075,0,5.28,0.131,6.902,0.131C77.985,256.831,78.734,258.866,75.674,258.866z"/>
		<rect x="207.286" y="226.566" style="fill:#254254;" width="0.872" height="18.319"/>
		<rect x="206.123" y="229.628" style="fill:#466480;" width="6.688" height="2.235"/>
		<rect x="206.123" y="231.575" style="fill:#254254;" width="6.688" height="0.289"/>
		<polygon style="fill:#254254;" points="207.722,234.483 207.722,234.772 212.811,231.864 212.811,231.575 		"/>
		<rect x="205.978" y="234.854" style="fill:#466480;" width="9.596" height="1.599"/>
		<rect x="205.978" y="236.15" style="fill:#254254;" width="9.596" height="0.314"/>
		<polygon style="fill:#254254;" points="214.697,243.868 214.115,243.868 212.37,236.307 212.952,236.307 		"/>
		<rect x="207.722" y="239.797" style="fill:#254254;" width="5.816" height="0.291"/>
		<polygon style="fill:#254254;" points="213.974,240.233 207.722,236.598 207.722,236.307 213.974,239.942 		"/>
		<polygon style="fill:#254254;" points="214.338,243.795 208.086,240.16 208.086,239.87 214.338,243.504 		"/>
		<polygon style="fill:#254254;" points="214.022,239.87 207.77,243.504 207.77,243.795 214.022,240.16 		"/>
		<polygon style="fill:#254254;" points="212.811,236.307 207.722,239.942 207.722,240.233 212.811,236.598 		"/>
		
			<rect x="215.751" y="237.495" transform="matrix(0.7664 -0.6424 0.6424 0.7664 -100.5667 198.8859)" style="fill:#254254;" width="14.83" height="0.436"/>
		<rect x="219.935" y="245.613" style="fill:#3B5972;" width="5.234" height="6.833"/>
		<rect x="171.551" y="208.731" style="fill:#254254;" width="0.519" height="44.151"/>
		<polygon style="fill:#254254;" points="165.299,221.187 165.818,221.187 162.765,252.882 162.246,252.882 		"/>
		<rect x="163.766" y="221.179" style="fill:#254254;" width="13.667" height="0.49"/>
		<rect x="169.387" y="216.099" style="fill:#254254;" width="7.56" height="1.668"/>
		<rect x="165.148" y="225.525" style="fill:#254254;" width="6.862" height="0.49"/>
		<rect x="154.654" y="229.805" style="fill:#254254;" width="17.355" height="0.49"/>
		<polygon style="fill:#254254;" points="172.009,234.662 159.307,234.662 159.134,234.172 172.009,234.172 		"/>
		<rect x="161.185" y="239.019" style="fill:#254254;" width="10.824" height="0.49"/>
		<rect x="163.184" y="244.202" style="fill:#254254;" width="8.825" height="0.49"/>
		<rect x="162.893" y="248.763" style="fill:#254254;" width="9.116" height="0.49"/>
		<polygon style="fill:#254254;" points="172.009,253.007 162.893,249.589 162.893,249.099 172.009,252.517 		"/>
		<polygon style="fill:#254254;" points="171.908,248.398 163.436,244.98 163.436,244.49 171.908,247.908 		"/>
		<polygon style="fill:#254254;" points="171.952,239.403 164.353,234.822 164.353,234.332 171.952,238.913 		"/>
		<polygon style="fill:#254254;" points="171.84,244.408 163.853,239.827 163.853,239.337 171.84,243.918 		"/>
		<polygon style="fill:#254254;" points="171.714,234.569 164.801,230.569 164.801,230.079 171.714,234.079 		"/>
		<polygon style="fill:#254254;" points="171.811,230.249 165.278,226.347 165.278,225.857 171.811,229.759 		"/>
		<polygon style="fill:#254254;" points="172.101,225.835 165.615,221.932 165.615,221.442 172.101,225.345 		"/>
		<polygon style="fill:#254254;" points="165.285,225.822 171.771,221.919 171.771,221.429 165.285,225.332 		"/>
		<polygon style="fill:#254254;" points="171.956,225.855 175.199,221.952 175.199,221.462 171.956,225.365 		"/>
		<polygon style="fill:#254254;" points="164.638,230.115 171.691,226.212 171.691,225.722 164.638,229.625 		"/>
		<polygon style="fill:#254254;" points="164.213,234.578 171.751,230.288 171.751,229.798 164.213,234.088 		"/>
		<polygon style="fill:#254254;" points="163.766,239.157 171.86,234.866 171.86,234.376 163.766,238.667 		"/>
		<polygon style="fill:#254254;" points="163.161,244.444 171.643,239.669 171.643,239.179 163.161,243.954 		"/>
		<polygon style="fill:#254254;" points="162.723,249.069 171.69,244.779 171.69,244.289 162.723,248.579 		"/>
		<polygon style="fill:#254254;" points="162.262,252.892 171.714,249.086 171.714,248.596 162.262,252.402 		"/>
		<polygon style="fill:#254254;" points="163.286,244.543 157.372,230.482 157.465,229.999 163.379,244.06 		"/>
		<rect x="170.114" y="209.202" style="fill:#254254;" width="3.392" height="0.498"/>
		<rect x="170.502" y="208.108" style="fill:#254254;" width="2.423" height="0.665"/>
		<rect x="171.035" y="212.802" style="fill:#254254;" width="1.357" height="1.163"/>
		<rect x="170.647" y="215.613" style="fill:#254254;" width="1.26" height="5.719"/>
		<polygon style="fill:#254254;" points="163.766,219.296 163.766,221.526 164.153,221.526 164.153,219.587 176.851,219.587 
			176.851,221.526 177.238,221.526 177.238,219.296 		"/>
		<rect x="163.959" y="220.266" style="fill:#254254;" width="12.988" height="0.194"/>
		<rect x="174.234" y="219.393" style="fill:#254254;" width="0.194" height="2.229"/>
		<rect x="167.449" y="219.393" style="fill:#254254;" width="0.194" height="2.229"/>
		<polygon style="fill:#254254;" points="170.746,221.233 170.552,221.233 169.676,217.65 169.87,217.65 		"/>
		<polygon style="fill:#254254;" points="171.473,220.991 171.279,220.991 175.54,217.214 175.734,217.214 		"/>
		<path style="fill:#254254;" d="M162.287,223.367h-6.034c-1.285,0-2.326,1.042-2.326,2.326c0,1.285,1.042,2.326,2.326,2.326h6.034
			c1.285,0,2.326-1.042,2.326-2.326C164.614,224.409,163.572,223.367,162.287,223.367z M162.287,227.846h-6.034
			c-1.186,0-2.152-0.965-2.152-2.152c0-1.187,0.965-2.152,2.152-2.152h6.034c1.187,0,2.152,0.965,2.152,2.152
			C164.439,226.88,163.474,227.846,162.287,227.846z"/>
		<rect x="154.145" y="224.894" style="fill:#254254;" width="10.25" height="0.218"/>
		<rect x="154.145" y="226.057" style="fill:#254254;" width="10.25" height="0.218"/>
		<rect x="154.654" y="227.22" style="fill:#254254;" width="9.232" height="0.218"/>
		<rect x="154.654" y="224.022" style="fill:#254254;" width="9.232" height="0.218"/>
		<rect x="155.672" y="223.513" style="fill:#254254;" width="0.073" height="4.362"/>
		<rect x="156.726" y="223.513" style="fill:#254254;" width="0.073" height="4.362"/>
		<rect x="157.78" y="223.513" style="fill:#254254;" width="0.073" height="4.362"/>
		<rect x="158.834" y="223.513" style="fill:#254254;" width="0.073" height="4.362"/>
		<rect x="159.888" y="223.513" style="fill:#254254;" width="0.073" height="4.362"/>
		<rect x="160.942" y="223.513" style="fill:#254254;" width="0.073" height="4.362"/>
		<rect x="161.996" y="223.513" style="fill:#254254;" width="0.073" height="4.362"/>
		<rect x="163.051" y="223.513" style="fill:#254254;" width="0.073" height="4.362"/>
		<rect x="164.105" y="224.603" style="fill:#254254;" width="0.073" height="2.181"/>
		<rect x="154.691" y="224.094" style="fill:#254254;" width="0.073" height="3.199"/>
		<rect x="159.089" y="224.567" style="fill:#254254;" width="0.582" height="3.344"/>
		<rect x="157.707" y="226.312" style="fill:#254254;" width="3.344" height="0.582"/>
		<rect x="158.071" y="228.82" style="fill:#254254;" width="2.69" height="1.09"/>
		<rect x="158.362" y="226.493" style="fill:#254254;" width="0.363" height="2.69"/>
		<rect x="160.106" y="226.493" style="fill:#254254;" width="0.363" height="2.69"/>
	</g>
	<g>
		<path style="fill:#F2736D;" d="M59.134,282.84c-0.613-0.057-1.221-0.114-1.819-0.169v0.169H59.134z"/>
		<g>
			<path style="fill:#F2736D;" d="M299.51,282.57c0.118-4.154,3.956-8.661,3.956-8.661H37.052l0.161,2.735L299.51,282.57z"/>
		</g>
	</g>
	<polygon style="fill:#254254;" points="36.488,268.973 37.177,274.255 303.536,274.255 310.664,266.272 	"/>
</g>
</svg>