<?xml version="1.0" encoding="utf-8"?>
<!-- Generator: Adobe Illustrator 27.5.0, SVG Export Plug-In . SVG Version: 6.00 Build 0)  -->
<svg xmlns="http://www.w3.org/2000/svg" viewBox="35 25 369 86">
<g>
	<g>
		<g>
			<path style="fill:#254254;" d="M161.705,47.366c0,0.6-0.486,1.085-1.085,1.085h-3.799c-0.599,0-1.085-0.486-1.085-1.085v-5.427
				c0-0.599,0.486-1.085,1.085-1.085h3.799c0.599,0,1.085,0.486,1.085,1.085V47.366z"/>
			<rect x="156.789" y="46.401" style="fill:#254254;" width="2.219" height="3.772"/>
			<polygon style="fill:#254254;" points="133.01,58.47 129.205,58.47 130.156,42.962 132.059,42.962 			"/>
			<polygon style="fill:#254254;" points="147.136,49.874 139.74,49.874 142.504,27.179 144.373,27.179 			"/>
			<g>
				<rect x="127.777" y="56.599" style="fill:#466480;" width="35.769" height="23.728"/>
				<rect x="130.107" y="70.579" style="fill:#254254;" width="11.037" height="4.115"/>
				<polygon style="fill:#254254;" points="153.648,62.085 153.648,68.956 127.777,68.956 127.777,76.117 128.443,76.117 
					128.443,69.455 154.314,69.455 154.314,62.584 163.546,62.584 163.546,62.085 				"/>
			</g>
			<g>
				<rect x="131.825" y="54.081" style="fill:#3B5972;" width="35.283" height="2.615"/>
				<rect x="131.825" y="53.164" style="fill:#254254;" width="35.283" height="1.121"/>
			</g>
			<g>
				<rect x="136.152" y="49.926" style="fill:#3B5972;" width="34.833" height="0.805"/>
				<rect x="136.152" y="49.644" style="fill:#254254;" width="34.833" height="0.345"/>
			</g>
			<g>
				<rect x="136.152" y="51.322" style="fill:#3B5972;" width="32.836" height="1.862"/>
				<rect x="136.152" y="50.669" style="fill:#254254;" width="32.836" height="0.798"/>
			</g>
			<polygon style="fill:#3B5972;" points="169.367,65.503 163.114,70.54 163.114,64.113 169.367,64.113 			"/>
			<polygon style="fill:#3B5972;" points="124.058,57.101 128.187,58.939 128.187,56.594 124.058,56.594 			"/>
			<polygon style="fill:#3B5972;" points="124.058,58.876 128.187,60.714 128.187,58.369 124.058,58.369 			"/>
			<polygon style="fill:#3B5972;" points="124.058,60.651 128.187,62.49 128.187,60.144 124.058,60.144 			"/>
			<path style="fill:#254254;" d="M126.667,43.528l2.712,2.768h3.117l2.712-2.768H126.667z M132.383,46.173h-2.892l-2.469-2.521
				h7.831L132.383,46.173z"/>
			<path style="fill:#254254;" d="M131.88,42.629c0,0.276-0.223,0.499-0.499,0.499l0,0c-0.276,0-0.499-0.224-0.499-0.499v-2.774
				c0-0.276,0.224-0.499,0.499-0.499l0,0c0.276,0,0.499,0.223,0.499,0.499V42.629z"/>
			<polygon style="fill:#254254;" points="139.314,28.926 139.314,26.79 138.648,26.79 138.648,29.592 147.136,29.592 
				147.136,28.926 			"/>
			<path style="fill:#254254;" d="M144.628,25.597h-3.658c-0.332,0-0.601,0.269-0.601,0.601v0.985c0,0.332,0.269,0.601,0.601,0.601
				h3.658c0.331,0,0.601-0.269,0.601-0.601v-0.985C145.229,25.867,144.959,25.597,144.628,25.597z M145.029,27.183
				c0,0.222-0.18,0.402-0.402,0.402h-3.658c-0.222,0-0.402-0.18-0.402-0.402v-0.984c0-0.222,0.18-0.402,0.402-0.402h3.658
				c0.222,0,0.402,0.18,0.402,0.402V27.183z"/>
			<rect x="146.554" y="28.219" style="fill:#254254;" width="0.416" height="1.165"/>
			<path style="fill:#3B5972;" d="M148.414,27.626c0-0.158-0.128-0.287-0.287-0.287h-2.612c-0.158,0-0.287,0.128-0.287,0.287v0.703
				c0,0.158,0.128,0.287,0.287,0.287h2.612c0.158,0,0.287-0.128,0.287-0.287V27.626z"/>
			<path style="fill:#466480;" d="M129.911,43.281c-0.276,0-0.499-0.224-0.499-0.499l0,0c0-0.276,0.224-0.499,0.499-0.499h2.774
				c0.276,0,0.499,0.223,0.499,0.499l0,0c0,0.276-0.224,0.499-0.499,0.499H129.911z"/>
			<path style="fill:#466480;" d="M126.804,43.96c-0.169,0-0.305-0.137-0.305-0.305l0,0c0-0.169,0.137-0.305,0.305-0.305h3.107
				c0.168,0,0.305,0.137,0.305,0.305l0,0c0,0.168-0.137,0.305-0.305,0.305L126.804,43.96z"/>
			<g>
				<rect x="135.653" y="34.196" style="fill:#466480;" width="15.644" height="0.888"/>
				<g>
					<path style="fill:#254254;" d="M135.708,35.056l4.407,3.301h6.72l4.407-3.301H135.708z M146.768,38.158h-6.587l-3.873-2.902
						h14.334L146.768,38.158z"/>
				</g>
			</g>
			<g>
				<rect x="133.473" y="40.329" style="fill:#466480;" width="20.003" height="1.135"/>
				<g>
					<path style="fill:#254254;" d="M133.544,41.429l5.635,4.221h8.592l5.634-4.221H133.544z M147.686,45.394h-8.422l-4.953-3.71
						h18.327L147.686,45.394z"/>
				</g>
			</g>
			<path style="fill:#466480;" d="M162.369,45.68c0,0.761-0.617,1.378-1.378,1.378h-4.822c-0.761,0-1.378-0.617-1.378-1.378v-6.888
				c0-0.761,0.617-1.378,1.378-1.378h4.822c0.761,0,1.378,0.617,1.378,1.378V45.68z"/>
			<path style="fill:#254254;" d="M165.466,49.987c0,0.164-0.133,0.298-0.298,0.298l0,0c-0.164,0-0.298-0.133-0.298-0.298v-9.921
				c0-0.164,0.133-0.298,0.298-0.298l0,0c0.164,0,0.298,0.133,0.298,0.298V49.987z"/>
			<path style="fill:#254254;" d="M167.481,50.059c0,0.125-0.133,0.226-0.298,0.226l0,0c-0.164,0-0.298-0.101-0.298-0.226v-7.537
				c0-0.125,0.133-0.226,0.298-0.226l0,0c0.164,0,0.298,0.101,0.298,0.226V50.059z"/>
		</g>
		<rect x="159.8" y="54.816" style="fill:#466480;" width="8.593" height="2.949"/>
		<rect x="159.8" y="56.079" style="fill:#254254;" width="8.593" height="1.179"/>
		<rect x="159.8" y="57.68" style="fill:#466480;" width="8.593" height="2.949"/>
		<rect x="159.8" y="58.944" style="fill:#254254;" width="8.593" height="1.179"/>
		<rect x="159.8" y="60.544" style="fill:#466480;" width="8.593" height="2.948"/>
		<rect x="159.8" y="61.808" style="fill:#254254;" width="8.593" height="1.179"/>
	</g>
	<g>
		<path style="fill:#466480;" d="M392.243,90.625c-4.643,4.103-2.912,6.748-5.118,6.748H39.53c-2.206,0-3.994-1.788-3.994-3.994
			V78.78c1.147-0.64,1.788-0.395,3.994-0.395h363.737c0.38,0,0.826,3.083-0.924,4.968C400.202,85.659,398.034,85.508,392.243,90.625
			z"/>
		<g>
			<path style="fill:#E4355C;" d="M395.006,97.551H44.394c-3.527,0-6.405,2.745-6.635,6.214h7.078v1.775
				c0,1.471,1.192,2.663,2.663,2.663h3.107c1.471,0,2.663-1.192,2.663-2.663v-1.775h21.741c1.471,0,3.856,1.192,5.328,2.663
				l4.442,4.438h310.225c3.677,0,6.657-2.98,6.657-6.657C401.663,100.531,398.683,97.551,395.006,97.551z"/>
			<path style="fill:#F2736D;" d="M401.395,102.348c-0.806-2.77-3.358-4.797-6.389-4.797H44.394c-3.029,0-5.575,2.027-6.38,4.797
				H401.395z"/>
		</g>
		<rect x="149.577" y="78.385" style="fill:#3B5972;" width="57.696" height="16.947"/>
		<rect x="292.707" y="76.026" style="fill:#3B5972;" width="27.849" height="15.644"/>
		<rect x="86.112" y="78.385" style="fill:#3B5972;" width="23.078" height="16.947"/>
		<g>
			<rect x="47.944" y="79.354" style="fill:#3B5972;" width="5.326" height="11.539"/>
			<rect x="55.045" y="79.354" style="fill:#3B5972;" width="5.326" height="11.539"/>
			<rect x="62.146" y="79.354" style="fill:#3B5972;" width="5.326" height="11.539"/>
			<rect x="69.247" y="79.354" style="fill:#3B5972;" width="5.326" height="11.539"/>
			<rect x="76.348" y="79.354" style="fill:#3B5972;" width="5.326" height="11.539"/>
		</g>
		<path style="fill:#254254;" d="M208.198,95.282c0,1.156-0.937,2.093-2.093,2.093H37.611c-1.156,0-2.093-0.937-2.093-2.093v-0.349
			c0-1.156,0.937-2.093,2.093-2.093h168.494c1.156,0,2.093,0.937,2.093,2.093V95.282z"/>
		<path style="fill:#254254;" d="M149.727,89.687c0,0.868-0.704,1.571-1.571,1.571h-37.837c-0.868,0-1.571-0.703-1.571-1.571v-0.262
			c0-0.868,0.703-1.571,1.571-1.571h37.837c0.868,0,1.571,0.703,1.571,1.571V89.687z"/>
		<path style="fill:#254254;" d="M87.593,91.906c0,0.868-0.703,1.571-1.571,1.571H48.184c-0.868,0-1.571-0.703-1.571-1.571v-0.262
			c0-0.868,0.703-1.571,1.571-1.571h37.837c0.868,0,1.571,0.703,1.571,1.571V91.906z"/>
		<rect x="87.887" y="80.686" style="fill:#466480;" width="2.219" height="6.213"/>
		<rect x="92.104" y="80.686" style="fill:#466480;" width="2.219" height="6.213"/>
		<rect x="96.32" y="80.686" style="fill:#466480;" width="2.219" height="6.213"/>
		<rect x="100.536" y="80.686" style="fill:#466480;" width="2.219" height="6.213"/>
		<rect x="104.752" y="80.686" style="fill:#466480;" width="2.219" height="6.213"/>
		<rect x="149.501" y="80.686" style="fill:#254254;" width="57.55" height="3.329"/>
		<circle style="fill:#254254;" cx="152.429" cy="88.498" r="1.059"/>
		<path style="fill:#254254;" d="M158.299,88.498c0,0.585-0.474,1.059-1.059,1.059c-0.585,0-1.059-0.474-1.059-1.059
			s0.474-1.059,1.059-1.059C157.825,87.439,158.299,87.913,158.299,88.498z"/>
		<circle style="fill:#254254;" cx="162.051" cy="88.498" r="1.059"/>
		<path style="fill:#254254;" d="M167.921,88.498c0,0.585-0.474,1.059-1.059,1.059c-0.585,0-1.059-0.474-1.059-1.059
			s0.474-1.059,1.059-1.059C167.447,87.439,167.921,87.913,167.921,88.498z"/>
		<circle style="fill:#254254;" cx="171.674" cy="88.498" r="1.059"/>
		<path style="fill:#254254;" d="M177.544,88.498c0,0.585-0.474,1.059-1.059,1.059c-0.585,0-1.059-0.474-1.059-1.059
			s0.474-1.059,1.059-1.059C177.07,87.439,177.544,87.913,177.544,88.498z"/>
		<circle style="fill:#254254;" cx="181.296" cy="88.498" r="1.059"/>
		<path style="fill:#254254;" d="M187.166,88.498c0,0.585-0.474,1.059-1.059,1.059c-0.585,0-1.059-0.474-1.059-1.059
			s0.474-1.059,1.059-1.059C186.692,87.439,187.166,87.913,187.166,88.498z"/>
		<circle style="fill:#254254;" cx="190.918" cy="88.498" r="1.059"/>
		<path style="fill:#254254;" d="M196.788,88.498c0,0.585-0.474,1.059-1.059,1.059c-0.585,0-1.059-0.474-1.059-1.059
			s0.474-1.059,1.059-1.059C196.314,87.439,196.788,87.913,196.788,88.498z"/>
		<circle style="fill:#254254;" cx="200.541" cy="88.498" r="1.059"/>
		<path style="fill:#254254;" d="M212.59,92.891c0,0.585-0.474,1.059-1.059,1.059c-0.585,0-1.059-0.474-1.059-1.059
			c0-0.585,0.474-1.059,1.059-1.059C212.116,91.832,212.59,92.306,212.59,92.891z"/>
		<circle style="fill:#254254;" cx="216.343" cy="92.891" r="1.059"/>
		<path style="fill:#254254;" d="M222.213,92.891c0,0.585-0.474,1.059-1.059,1.059c-0.585,0-1.059-0.474-1.059-1.059
			c0-0.585,0.474-1.059,1.059-1.059C221.739,91.832,222.213,92.306,222.213,92.891z"/>
		<circle style="fill:#254254;" cx="225.965" cy="92.891" r="1.059"/>
		<path style="fill:#254254;" d="M231.835,92.891c0,0.585-0.474,1.059-1.059,1.059c-0.585,0-1.059-0.474-1.059-1.059
			c0-0.585,0.474-1.059,1.059-1.059C231.361,91.832,231.835,92.306,231.835,92.891z"/>
		<circle style="fill:#254254;" cx="235.587" cy="92.891" r="1.059"/>
		<path style="fill:#254254;" d="M241.457,92.891c0,0.585-0.474,1.059-1.059,1.059c-0.585,0-1.059-0.474-1.059-1.059
			c0-0.585,0.474-1.059,1.059-1.059C240.983,91.832,241.457,92.306,241.457,92.891z"/>
		<circle style="fill:#254254;" cx="245.21" cy="92.891" r="1.059"/>
		<path style="fill:#254254;" d="M251.08,92.891c0,0.585-0.474,1.059-1.059,1.059c-0.585,0-1.059-0.474-1.059-1.059
			c0-0.585,0.474-1.059,1.059-1.059C250.605,91.832,251.08,92.306,251.08,92.891z"/>
		<circle style="fill:#254254;" cx="254.832" cy="92.891" r="1.059"/>
		<path style="fill:#254254;" d="M260.702,92.891c0,0.585-0.474,1.059-1.059,1.059c-0.585,0-1.059-0.474-1.059-1.059
			c0-0.585,0.474-1.059,1.059-1.059C260.228,91.832,260.702,92.306,260.702,92.891z"/>
		<path style="fill:#254254;" d="M403.386,78.78c0.443-1.551,0.148-3.058-0.118-3.058H39.53c-1.883,0-3.458,1.305-3.88,3.058
			H403.386z"/>
		<rect x="109.316" y="80.02" style="fill:#254254;" width="39.894" height="1.332"/>
		<rect x="109.316" y="81.767" style="fill:#254254;" width="39.894" height="1.332"/>
		<rect x="206.385" y="86.012" style="fill:#3B5972;" width="92.535" height="4.66"/>
		<rect x="209.815" y="81.319" style="fill:#254254;" width="11.018" height="2.754"/>
		<rect x="221.751" y="81.319" style="fill:#254254;" width="11.017" height="2.754"/>
		<rect x="233.687" y="81.319" style="fill:#254254;" width="11.017" height="2.754"/>
		<rect x="245.622" y="81.319" style="fill:#254254;" width="11.018" height="2.754"/>
		<rect x="257.099" y="81.319" style="fill:#254254;" width="11.017" height="2.754"/>
		<rect x="269.035" y="81.319" style="fill:#254254;" width="11.018" height="2.754"/>
		<rect x="281.43" y="81.319" style="fill:#254254;" width="11.018" height="2.754"/>
		<path style="fill:#254254;" d="M359.597,91.288c0,1.156-0.937,2.093-2.093,2.093H265.62c-1.156,0-2.093-0.937-2.093-2.093v-0.349
			c0-1.156,0.937-2.093,2.093-2.093h91.884c1.156,0,2.093,0.937,2.093,2.093V91.288z"/>
		<path style="fill:#254254;" d="M377.87,82.665c0,0.719-0.583,1.302-1.302,1.302h-57.151c-0.719,0-1.302-0.583-1.302-1.302v-0.217
			c0-0.719,0.583-1.302,1.302-1.302h57.151c0.719,0,1.302,0.583,1.302,1.302V82.665z"/>
		<path style="fill:#254254;" d="M212.59,88.453c0,0.585-0.474,1.059-1.059,1.059c-0.585,0-1.059-0.474-1.059-1.059
			s0.474-1.059,1.059-1.059C212.116,87.394,212.59,87.868,212.59,88.453z"/>
		<circle style="fill:#254254;" cx="216.343" cy="88.453" r="1.059"/>
		<path style="fill:#254254;" d="M222.213,88.453c0,0.585-0.474,1.059-1.059,1.059c-0.585,0-1.059-0.474-1.059-1.059
			s0.474-1.059,1.059-1.059C221.739,87.394,222.213,87.868,222.213,88.453z"/>
		<circle style="fill:#254254;" cx="225.965" cy="88.453" r="1.059"/>
		<path style="fill:#254254;" d="M231.835,88.453c0,0.585-0.474,1.059-1.059,1.059c-0.585,0-1.059-0.474-1.059-1.059
			s0.474-1.059,1.059-1.059C231.361,87.394,231.835,87.868,231.835,88.453z"/>
		<circle style="fill:#254254;" cx="235.587" cy="88.453" r="1.059"/>
		<path style="fill:#254254;" d="M241.457,88.453c0,0.585-0.474,1.059-1.059,1.059c-0.585,0-1.059-0.474-1.059-1.059
			s0.474-1.059,1.059-1.059C240.983,87.394,241.457,87.868,241.457,88.453z"/>
		<circle style="fill:#254254;" cx="245.21" cy="88.453" r="1.059"/>
		<path style="fill:#254254;" d="M251.08,88.453c0,0.585-0.474,1.059-1.059,1.059c-0.585,0-1.059-0.474-1.059-1.059
			s0.474-1.059,1.059-1.059C250.605,87.394,251.08,87.868,251.08,88.453z"/>
		<circle style="fill:#254254;" cx="254.832" cy="88.453" r="1.059"/>
		<path style="fill:#254254;" d="M260.702,88.453c0,0.585-0.474,1.059-1.059,1.059c-0.585,0-1.059-0.474-1.059-1.059
			s0.474-1.059,1.059-1.059C260.228,87.394,260.702,87.868,260.702,88.453z"/>
	</g>
	<g>
		<polygon style="fill:#254254;" points="192.167,75.256 193.023,75.256 193.702,74.399 189.902,74.592 		"/>
		<g>
			<path style="fill:#254254;" d="M195.373,74.085c-1.87,0.057-9.539,0.28-13.896,0.28c-0.007,0-6.592-0.293-6.592-0.293
				c-0.015-0.047-0.013-0.102,0.012-0.163c-0.182-0.173-0.395-0.46-0.555-0.757l-1.212-2.383c-0.011,0.041-0.003,0.099,0.026,0.166
				l1.139,2.721c0.131,0.298,0.315,0.584,0.48,0.757c-0.032,0.061-0.039,0.116-0.029,0.163c0,0,6.556,0.293,6.563,0.293
				c4.988,0,14.346-0.293,14.346-0.293C195.654,74.399,195.556,74.237,195.373,74.085z"/>
			<path style="fill:#3B5972;" d="M195.654,74.326c0-0.856-2.241-1.36-5.715-2.033c-2.289-0.443-5.281-0.007-7.569,0.344
				c-0.485,0.075-4.954,0.627-5.644,0.627l-2.136-2.418c-0.114-0.13-0.267-0.227-0.349-0.227h-1.019
				c-0.082,0-0.105,0.097-0.049,0.227l1.122,2.559c0.131,0.298,0.315,0.584,0.48,0.757c-0.032,0.061-0.039,0.116-0.029,0.163
				c0,0,6.556,0.293,6.563,0.293C186.296,74.619,195.654,74.326,195.654,74.326z"/>
			<path style="fill:#466480;" d="M188.653,75.021c0,0.093-0.075,0.168-0.168,0.168h-10.049c-0.093,0-0.168-0.075-0.168-0.168l0,0
				c0-0.093,0.075-0.168,0.168-0.168c0,0,5.227-1.605,6.783-1.55l3.266,1.55C188.577,74.853,188.653,74.928,188.653,75.021
				L188.653,75.021z"/>
			<path style="fill:#254254;" d="M188.653,75.021c0,0.093-0.075,0.168-0.168,0.168h-10.049c-0.093,0-0.168-0.075-0.168-0.168l0,0
				c0-0.093,0.075-0.168,0.168-0.168h10.049C188.577,74.853,188.653,74.928,188.653,75.021L188.653,75.021z"/>
			<path style="fill:#254254;" d="M188.362,72.165l0.887,1.077c0.21,0.256,0.564,0.452,0.801,0.452h5.124
				c-0.834-0.511-2.708-0.912-5.235-1.401C189.542,72.217,189,72.177,188.362,72.165z"/>
		</g>
		<path style="fill:#3B5972;" d="M183.668,75.285c0,0.244-0.198,0.443-0.443,0.443h-0.207c-0.244,0-0.443-0.198-0.443-0.443l0,0
			c0-0.245,0.198-0.443,0.443-0.443h0.207C183.47,74.842,183.668,75.04,183.668,75.285L183.668,75.285z"/>
		<path style="fill:#254254;" d="M183.137,75.285c0,0.244-0.198,0.443-0.443,0.443h-0.207c-0.244,0-0.443-0.198-0.443-0.443l0,0
			c0-0.245,0.198-0.443,0.443-0.443h0.207C182.939,74.842,183.137,75.04,183.137,75.285L183.137,75.285z"/>
		<path style="fill:#3B5972;" d="M193.348,75.285c0,0.244-0.198,0.443-0.443,0.443h-0.207c-0.245,0-0.443-0.198-0.443-0.443l0,0
			c0-0.245,0.198-0.443,0.443-0.443h0.207C193.15,74.842,193.348,75.04,193.348,75.285L193.348,75.285z"/>
		<path style="fill:#254254;" d="M192.817,75.285c0,0.244-0.198,0.443-0.443,0.443h-0.207c-0.245,0-0.443-0.198-0.443-0.443l0,0
			c0-0.245,0.198-0.443,0.443-0.443h0.207C192.618,74.842,192.817,75.04,192.817,75.285L192.817,75.285z"/>
	</g>
	<g>
		<polygon style="fill:#254254;" points="215.301,75.256 216.157,75.256 216.836,74.399 213.036,74.592 		"/>
		<g>
			<path style="fill:#254254;" d="M218.507,74.085c-1.87,0.057-9.539,0.28-13.896,0.28c-0.007,0-6.592-0.293-6.592-0.293
				c-0.015-0.047-0.013-0.102,0.012-0.163c-0.182-0.173-0.395-0.46-0.555-0.757l-1.212-2.383c-0.011,0.041-0.003,0.099,0.026,0.166
				l1.139,2.721c0.13,0.298,0.315,0.584,0.48,0.757c-0.032,0.061-0.039,0.116-0.028,0.163c0,0,6.555,0.293,6.563,0.293
				c4.988,0,14.346-0.293,14.346-0.293C218.788,74.399,218.69,74.237,218.507,74.085z"/>
			<path style="fill:#3B5972;" d="M218.788,74.326c0-0.856-2.241-1.36-5.715-2.033c-2.289-0.443-5.281-0.007-7.569,0.344
				c-0.485,0.075-4.954,0.627-5.644,0.627l-2.136-2.418c-0.114-0.13-0.267-0.227-0.349-0.227h-1.018
				c-0.082,0-0.106,0.097-0.049,0.227l1.122,2.559c0.13,0.298,0.315,0.584,0.48,0.757c-0.032,0.061-0.039,0.116-0.028,0.163
				c0,0,6.555,0.293,6.563,0.293C209.43,74.619,218.788,74.326,218.788,74.326z"/>
			<path style="fill:#466480;" d="M211.786,75.021c0,0.093-0.075,0.168-0.168,0.168H201.57c-0.093,0-0.168-0.075-0.168-0.168l0,0
				c0-0.093,0.075-0.168,0.168-0.168c0,0,5.227-1.605,6.783-1.55l3.266,1.55C211.711,74.853,211.786,74.928,211.786,75.021
				L211.786,75.021z"/>
			<path style="fill:#254254;" d="M211.786,75.021c0,0.093-0.075,0.168-0.168,0.168H201.57c-0.093,0-0.168-0.075-0.168-0.168l0,0
				c0-0.093,0.075-0.168,0.168-0.168h10.049C211.711,74.853,211.786,74.928,211.786,75.021L211.786,75.021z"/>
			<path style="fill:#254254;" d="M211.496,72.165l0.887,1.077c0.21,0.256,0.564,0.452,0.801,0.452h5.124
				c-0.834-0.511-2.708-0.912-5.235-1.401C212.676,72.217,212.134,72.177,211.496,72.165z"/>
		</g>
		<path style="fill:#3B5972;" d="M206.802,75.285c0,0.244-0.198,0.443-0.443,0.443h-0.207c-0.245,0-0.443-0.198-0.443-0.443l0,0
			c0-0.245,0.198-0.443,0.443-0.443h0.207C206.604,74.842,206.802,75.04,206.802,75.285L206.802,75.285z"/>
		<path style="fill:#254254;" d="M206.271,75.285c0,0.244-0.198,0.443-0.443,0.443h-0.207c-0.244,0-0.443-0.198-0.443-0.443l0,0
			c0-0.245,0.198-0.443,0.443-0.443h0.207C206.072,74.842,206.271,75.04,206.271,75.285L206.271,75.285z"/>
		<path style="fill:#3B5972;" d="M216.482,75.285c0,0.244-0.198,0.443-0.443,0.443h-0.207c-0.244,0-0.443-0.198-0.443-0.443l0,0
			c0-0.245,0.198-0.443,0.443-0.443h0.207C216.283,74.842,216.482,75.04,216.482,75.285L216.482,75.285z"/>
		<path style="fill:#254254;" d="M215.95,75.285c0,0.244-0.198,0.443-0.443,0.443h-0.207c-0.244,0-0.443-0.198-0.443-0.443l0,0
			c0-0.245,0.198-0.443,0.443-0.443h0.207C215.752,74.842,215.95,75.04,215.95,75.285L215.95,75.285z"/>
	</g>
	<g>
		<polygon style="fill:#254254;" points="238.435,75.256 239.291,75.256 239.97,74.399 236.17,74.592 		"/>
		<g>
			<path style="fill:#254254;" d="M241.64,74.085c-1.87,0.057-9.539,0.28-13.896,0.28c-0.007,0-6.592-0.293-6.592-0.293
				c-0.015-0.047-0.013-0.102,0.012-0.163c-0.182-0.173-0.395-0.46-0.555-0.757l-1.212-2.383c-0.011,0.041-0.003,0.099,0.026,0.166
				l1.139,2.721c0.13,0.298,0.315,0.584,0.48,0.757c-0.032,0.061-0.039,0.116-0.028,0.163c0,0,6.556,0.293,6.563,0.293
				c4.988,0,14.346-0.293,14.346-0.293C241.922,74.399,241.824,74.237,241.64,74.085z"/>
			<path style="fill:#3B5972;" d="M241.922,74.326c0-0.856-2.241-1.36-5.715-2.033c-2.29-0.443-5.281-0.007-7.569,0.344
				c-0.485,0.075-4.954,0.627-5.644,0.627l-2.136-2.418c-0.115-0.13-0.267-0.227-0.349-0.227h-1.018
				c-0.082,0-0.106,0.097-0.049,0.227l1.122,2.559c0.13,0.298,0.315,0.584,0.48,0.757c-0.032,0.061-0.039,0.116-0.028,0.163
				c0,0,6.556,0.293,6.563,0.293C232.564,74.619,241.922,74.326,241.922,74.326z"/>
			<path style="fill:#466480;" d="M234.92,75.021c0,0.093-0.075,0.168-0.168,0.168h-10.049c-0.093,0-0.168-0.075-0.168-0.168l0,0
				c0-0.093,0.075-0.168,0.168-0.168c0,0,5.227-1.605,6.783-1.55l3.266,1.55C234.845,74.853,234.92,74.928,234.92,75.021
				L234.92,75.021z"/>
			<path style="fill:#254254;" d="M234.92,75.021c0,0.093-0.075,0.168-0.168,0.168h-10.049c-0.093,0-0.168-0.075-0.168-0.168l0,0
				c0-0.093,0.075-0.168,0.168-0.168h10.049C234.845,74.853,234.92,74.928,234.92,75.021L234.92,75.021z"/>
			<path style="fill:#254254;" d="M234.629,72.165l0.887,1.077c0.211,0.256,0.564,0.452,0.801,0.452h5.124
				c-0.834-0.511-2.708-0.912-5.235-1.401C235.81,72.217,235.267,72.177,234.629,72.165z"/>
		</g>
		<path style="fill:#3B5972;" d="M229.936,75.285c0,0.244-0.198,0.443-0.443,0.443h-0.207c-0.244,0-0.443-0.198-0.443-0.443l0,0
			c0-0.245,0.198-0.443,0.443-0.443h0.207C229.738,74.842,229.936,75.04,229.936,75.285L229.936,75.285z"/>
		<path style="fill:#254254;" d="M229.404,75.285c0,0.244-0.198,0.443-0.443,0.443h-0.207c-0.245,0-0.443-0.198-0.443-0.443l0,0
			c0-0.245,0.198-0.443,0.443-0.443h0.207C229.206,74.842,229.404,75.04,229.404,75.285L229.404,75.285z"/>
		<path style="fill:#3B5972;" d="M239.615,75.285c0,0.244-0.198,0.443-0.443,0.443h-0.207c-0.245,0-0.443-0.198-0.443-0.443l0,0
			c0-0.245,0.198-0.443,0.443-0.443h0.207C239.417,74.842,239.615,75.04,239.615,75.285L239.615,75.285z"/>
		<path style="fill:#254254;" d="M239.084,75.285c0,0.244-0.198,0.443-0.443,0.443h-0.207c-0.244,0-0.443-0.198-0.443-0.443l0,0
			c0-0.245,0.198-0.443,0.443-0.443h0.207C238.886,74.842,239.084,75.04,239.084,75.285L239.084,75.285z"/>
	</g>
	<g>
		<polygon style="fill:#254254;" points="261.568,75.256 262.425,75.256 263.103,74.399 259.304,74.592 		"/>
		<g>
			<path style="fill:#254254;" d="M264.774,74.085c-1.87,0.057-9.539,0.28-13.896,0.28c-0.007,0-6.592-0.293-6.592-0.293
				c-0.015-0.047-0.013-0.102,0.012-0.163c-0.182-0.173-0.395-0.46-0.555-0.757l-1.212-2.383c-0.011,0.041-0.003,0.099,0.026,0.166
				l1.139,2.721c0.13,0.298,0.315,0.584,0.48,0.757c-0.032,0.061-0.039,0.116-0.028,0.163c0,0,6.556,0.293,6.563,0.293
				c4.988,0,14.346-0.293,14.346-0.293C265.055,74.399,264.958,74.237,264.774,74.085z"/>
			<path style="fill:#3B5972;" d="M265.055,74.326c0-0.856-2.241-1.36-5.715-2.033c-2.289-0.443-5.281-0.007-7.569,0.344
				c-0.485,0.075-4.954,0.627-5.644,0.627l-2.136-2.418c-0.114-0.13-0.267-0.227-0.349-0.227h-1.018
				c-0.082,0-0.105,0.097-0.049,0.227l1.122,2.559c0.13,0.298,0.315,0.584,0.48,0.757c-0.032,0.061-0.039,0.116-0.028,0.163
				c0,0,6.556,0.293,6.563,0.293C255.698,74.619,265.055,74.326,265.055,74.326z"/>
			<path style="fill:#466480;" d="M258.054,75.021c0,0.093-0.075,0.168-0.168,0.168h-10.049c-0.093,0-0.168-0.075-0.168-0.168l0,0
				c0-0.093,0.075-0.168,0.168-0.168c0,0,5.227-1.605,6.783-1.55l3.266,1.55C257.979,74.853,258.054,74.928,258.054,75.021
				L258.054,75.021z"/>
			<path style="fill:#254254;" d="M258.054,75.021c0,0.093-0.075,0.168-0.168,0.168h-10.049c-0.093,0-0.168-0.075-0.168-0.168l0,0
				c0-0.093,0.075-0.168,0.168-0.168h10.049C257.979,74.853,258.054,74.928,258.054,75.021L258.054,75.021z"/>
			<path style="fill:#254254;" d="M257.763,72.165l0.887,1.077c0.21,0.256,0.564,0.452,0.801,0.452h5.124
				c-0.834-0.511-2.708-0.912-5.235-1.401C258.944,72.217,258.401,72.177,257.763,72.165z"/>
		</g>
		<path style="fill:#3B5972;" d="M253.07,75.285c0,0.244-0.198,0.443-0.443,0.443h-0.207c-0.245,0-0.443-0.198-0.443-0.443l0,0
			c0-0.245,0.198-0.443,0.443-0.443h0.207C252.871,74.842,253.07,75.04,253.07,75.285L253.07,75.285z"/>
		<path style="fill:#254254;" d="M252.538,75.285c0,0.244-0.198,0.443-0.443,0.443h-0.207c-0.245,0-0.443-0.198-0.443-0.443l0,0
			c0-0.245,0.198-0.443,0.443-0.443h0.207C252.34,74.842,252.538,75.04,252.538,75.285L252.538,75.285z"/>
		<path style="fill:#3B5972;" d="M262.749,75.285c0,0.244-0.198,0.443-0.443,0.443H262.1c-0.245,0-0.443-0.198-0.443-0.443l0,0
			c0-0.245,0.198-0.443,0.443-0.443h0.207C262.551,74.842,262.749,75.04,262.749,75.285L262.749,75.285z"/>
		<path style="fill:#254254;" d="M262.218,75.285c0,0.244-0.198,0.443-0.443,0.443h-0.207c-0.245,0-0.443-0.198-0.443-0.443l0,0
			c0-0.245,0.198-0.443,0.443-0.443h0.207C262.02,74.842,262.218,75.04,262.218,75.285L262.218,75.285z"/>
	</g>
	<g>
		<polygon style="fill:#254254;" points="307.836,75.256 308.692,75.256 309.371,74.399 305.571,74.592 		"/>
		<g>
			<path style="fill:#254254;" d="M311.042,74.085c-1.87,0.057-9.539,0.28-13.896,0.28c-0.007,0-6.592-0.293-6.592-0.293
				c-0.015-0.047-0.013-0.102,0.012-0.163c-0.182-0.173-0.395-0.46-0.555-0.757l-1.212-2.383c-0.011,0.041-0.003,0.099,0.026,0.166
				l1.139,2.721c0.13,0.298,0.315,0.584,0.48,0.757c-0.032,0.061-0.039,0.116-0.029,0.163c0,0,6.556,0.293,6.563,0.293
				c4.988,0,14.346-0.293,14.346-0.293C311.323,74.399,311.225,74.237,311.042,74.085z"/>
			<path style="fill:#3B5972;" d="M311.323,74.326c0-0.856-2.241-1.36-5.715-2.033c-2.29-0.443-5.281-0.007-7.569,0.344
				c-0.485,0.075-4.954,0.627-5.644,0.627l-2.136-2.418c-0.115-0.13-0.267-0.227-0.349-0.227h-1.018
				c-0.082,0-0.105,0.097-0.049,0.227l1.122,2.559c0.13,0.298,0.315,0.584,0.48,0.757c-0.032,0.061-0.039,0.116-0.029,0.163
				c0,0,6.556,0.293,6.563,0.293C301.965,74.619,311.323,74.326,311.323,74.326z"/>
			<path style="fill:#466480;" d="M304.322,75.021c0,0.093-0.075,0.168-0.168,0.168h-10.049c-0.093,0-0.168-0.075-0.168-0.168l0,0
				c0-0.093,0.075-0.168,0.168-0.168c0,0,5.227-1.605,6.783-1.55l3.266,1.55C304.246,74.853,304.322,74.928,304.322,75.021
				L304.322,75.021z"/>
			<path style="fill:#254254;" d="M304.322,75.021c0,0.093-0.075,0.168-0.168,0.168h-10.049c-0.093,0-0.168-0.075-0.168-0.168l0,0
				c0-0.093,0.075-0.168,0.168-0.168h10.049C304.246,74.853,304.322,74.928,304.322,75.021L304.322,75.021z"/>
			<path style="fill:#254254;" d="M304.031,72.165l0.887,1.077c0.211,0.256,0.564,0.452,0.801,0.452h5.124
				c-0.834-0.511-2.708-0.912-5.235-1.401C305.211,72.217,304.669,72.177,304.031,72.165z"/>
		</g>
		<path style="fill:#3B5972;" d="M299.337,75.285c0,0.244-0.198,0.443-0.443,0.443h-0.207c-0.244,0-0.443-0.198-0.443-0.443l0,0
			c0-0.245,0.198-0.443,0.443-0.443h0.207C299.139,74.842,299.337,75.04,299.337,75.285L299.337,75.285z"/>
		<path style="fill:#254254;" d="M298.806,75.285c0,0.244-0.198,0.443-0.443,0.443h-0.207c-0.245,0-0.443-0.198-0.443-0.443l0,0
			c0-0.245,0.198-0.443,0.443-0.443h0.207C298.608,74.842,298.806,75.04,298.806,75.285L298.806,75.285z"/>
		<path style="fill:#3B5972;" d="M309.017,75.285c0,0.244-0.198,0.443-0.443,0.443h-0.207c-0.245,0-0.443-0.198-0.443-0.443l0,0
			c0-0.245,0.198-0.443,0.443-0.443h0.207C308.819,74.842,309.017,75.04,309.017,75.285L309.017,75.285z"/>
		<path style="fill:#254254;" d="M308.486,75.285c0,0.244-0.198,0.443-0.443,0.443h-0.207c-0.245,0-0.443-0.198-0.443-0.443l0,0
			c0-0.245,0.198-0.443,0.443-0.443h0.207C308.287,74.842,308.486,75.04,308.486,75.285L308.486,75.285z"/>
	</g>
	<g>
		<polygon style="fill:#254254;" points="330.97,75.256 331.826,75.256 332.505,74.399 328.705,74.592 		"/>
		<g>
			<path style="fill:#254254;" d="M334.175,74.085c-1.87,0.057-9.539,0.28-13.896,0.28c-0.007,0-6.592-0.293-6.592-0.293
				c-0.015-0.047-0.013-0.102,0.012-0.163c-0.182-0.173-0.395-0.46-0.555-0.757l-1.212-2.383c-0.011,0.041-0.003,0.099,0.026,0.166
				l1.139,2.721c0.13,0.298,0.315,0.584,0.48,0.757c-0.031,0.061-0.039,0.116-0.028,0.163c0,0,6.556,0.293,6.563,0.293
				c4.988,0,14.346-0.293,14.346-0.293C334.457,74.399,334.359,74.237,334.175,74.085z"/>
			<path style="fill:#3B5972;" d="M334.457,74.326c0-0.856-2.241-1.36-5.715-2.033c-2.29-0.443-5.281-0.007-7.569,0.344
				c-0.485,0.075-4.954,0.627-5.644,0.627l-2.136-2.418c-0.114-0.13-0.267-0.227-0.349-0.227h-1.018
				c-0.082,0-0.106,0.097-0.049,0.227l1.122,2.559c0.13,0.298,0.315,0.584,0.48,0.757c-0.031,0.061-0.039,0.116-0.028,0.163
				c0,0,6.556,0.293,6.563,0.293C325.099,74.619,334.457,74.326,334.457,74.326z"/>
			<path style="fill:#466480;" d="M327.455,75.021c0,0.093-0.075,0.168-0.168,0.168h-10.049c-0.093,0-0.168-0.075-0.168-0.168l0,0
				c0-0.093,0.075-0.168,0.168-0.168c0,0,5.227-1.605,6.783-1.55l3.266,1.55C327.38,74.853,327.455,74.928,327.455,75.021
				L327.455,75.021z"/>
			<path style="fill:#254254;" d="M327.455,75.021c0,0.093-0.075,0.168-0.168,0.168h-10.049c-0.093,0-0.168-0.075-0.168-0.168l0,0
				c0-0.093,0.075-0.168,0.168-0.168h10.049C327.38,74.853,327.455,74.928,327.455,75.021L327.455,75.021z"/>
			<path style="fill:#254254;" d="M327.164,72.165l0.887,1.077c0.21,0.256,0.564,0.452,0.801,0.452h5.124
				c-0.834-0.511-2.708-0.912-5.235-1.401C328.345,72.217,327.802,72.177,327.164,72.165z"/>
		</g>
		<path style="fill:#3B5972;" d="M322.471,75.285c0,0.244-0.198,0.443-0.443,0.443h-0.207c-0.245,0-0.443-0.198-0.443-0.443l0,0
			c0-0.245,0.198-0.443,0.443-0.443h0.207C322.273,74.842,322.471,75.04,322.471,75.285L322.471,75.285z"/>
		<path style="fill:#254254;" d="M321.94,75.285c0,0.244-0.198,0.443-0.443,0.443h-0.207c-0.245,0-0.443-0.198-0.443-0.443l0,0
			c0-0.245,0.198-0.443,0.443-0.443h0.207C321.741,74.842,321.94,75.04,321.94,75.285L321.94,75.285z"/>
		<path style="fill:#3B5972;" d="M332.151,75.285c0,0.244-0.198,0.443-0.443,0.443h-0.207c-0.245,0-0.443-0.198-0.443-0.443l0,0
			c0-0.245,0.198-0.443,0.443-0.443h0.207C331.952,74.842,332.151,75.04,332.151,75.285L332.151,75.285z"/>
		<path style="fill:#254254;" d="M331.619,75.285c0,0.244-0.198,0.443-0.443,0.443h-0.207c-0.245,0-0.443-0.198-0.443-0.443l0,0
			c0-0.245,0.198-0.443,0.443-0.443h0.207C331.421,74.842,331.619,75.04,331.619,75.285L331.619,75.285z"/>
	</g>
	<g>
		<polygon style="fill:#254254;" points="377.237,75.256 378.093,75.256 378.772,74.399 374.973,74.592 		"/>
		<g>
			<path style="fill:#254254;" d="M380.443,74.085c-1.87,0.057-9.539,0.28-13.896,0.28c-0.007,0-6.592-0.293-6.592-0.293
				c-0.015-0.047-0.013-0.102,0.012-0.163c-0.182-0.173-0.395-0.46-0.555-0.757l-1.212-2.383c-0.011,0.041-0.003,0.099,0.026,0.166
				l1.139,2.721c0.13,0.298,0.315,0.584,0.48,0.757c-0.032,0.061-0.039,0.116-0.029,0.163c0,0,6.556,0.293,6.563,0.293
				c4.988,0,14.346-0.293,14.346-0.293C380.724,74.399,380.627,74.237,380.443,74.085z"/>
			<path style="fill:#3B5972;" d="M380.724,74.326c0-0.856-2.241-1.36-5.716-2.033c-2.289-0.443-5.28-0.007-7.569,0.344
				c-0.485,0.075-4.954,0.627-5.644,0.627l-2.136-2.418c-0.115-0.13-0.267-0.227-0.349-0.227h-1.018
				c-0.082,0-0.105,0.097-0.049,0.227l1.122,2.559c0.13,0.298,0.315,0.584,0.48,0.757c-0.032,0.061-0.039,0.116-0.029,0.163
				c0,0,6.556,0.293,6.563,0.293C371.367,74.619,380.724,74.326,380.724,74.326z"/>
			<path style="fill:#466480;" d="M373.723,75.021c0,0.093-0.075,0.168-0.168,0.168h-10.049c-0.093,0-0.168-0.075-0.168-0.168l0,0
				c0-0.093,0.075-0.168,0.168-0.168c0,0,5.227-1.605,6.783-1.55l3.266,1.55C373.648,74.853,373.723,74.928,373.723,75.021
				L373.723,75.021z"/>
			<path style="fill:#254254;" d="M373.723,75.021c0,0.093-0.075,0.168-0.168,0.168h-10.049c-0.093,0-0.168-0.075-0.168-0.168l0,0
				c0-0.093,0.075-0.168,0.168-0.168h10.049C373.648,74.853,373.723,74.928,373.723,75.021L373.723,75.021z"/>
			<path style="fill:#254254;" d="M373.432,72.165l0.887,1.077c0.211,0.256,0.564,0.452,0.801,0.452h5.124
				c-0.834-0.511-2.708-0.912-5.235-1.401C374.613,72.217,374.07,72.177,373.432,72.165z"/>
		</g>
		<path style="fill:#3B5972;" d="M368.738,75.285c0,0.244-0.198,0.443-0.443,0.443h-0.207c-0.245,0-0.443-0.198-0.443-0.443l0,0
			c0-0.245,0.198-0.443,0.443-0.443h0.207C368.54,74.842,368.738,75.04,368.738,75.285L368.738,75.285z"/>
		<path style="fill:#254254;" d="M368.207,75.285c0,0.244-0.198,0.443-0.443,0.443h-0.207c-0.245,0-0.443-0.198-0.443-0.443l0,0
			c0-0.245,0.198-0.443,0.443-0.443h0.207C368.009,74.842,368.207,75.04,368.207,75.285L368.207,75.285z"/>
		<path style="fill:#3B5972;" d="M378.418,75.285c0,0.244-0.198,0.443-0.443,0.443h-0.207c-0.245,0-0.443-0.198-0.443-0.443l0,0
			c0-0.245,0.198-0.443,0.443-0.443h0.207C378.22,74.842,378.418,75.04,378.418,75.285L378.418,75.285z"/>
		<path style="fill:#254254;" d="M377.887,75.285c0,0.244-0.198,0.443-0.443,0.443h-0.207c-0.245,0-0.443-0.198-0.443-0.443l0,0
			c0-0.245,0.198-0.443,0.443-0.443h0.207C377.688,74.842,377.887,75.04,377.887,75.285L377.887,75.285z"/>
	</g>
	<g>
		<polygon style="fill:#3B5972;" points="40.089,73.905 39.522,73.905 39.522,72.725 39.711,72.725 		"/>
		<polygon style="fill:#3B5972;" points="55.674,73.905 56.241,73.905 56.241,72.725 56.052,72.725 		"/>
		<g>
			<path style="fill:#254254;" d="M48.216,75.512c0,0.126-0.102,0.229-0.229,0.229l0,0c-0.126,0-0.229-0.102-0.229-0.229v-0.629
				c0-0.126,0.102-0.229,0.229-0.229l0,0c0.126,0,0.229,0.102,0.229,0.229V75.512z"/>
			<path style="fill:#254254;" d="M42.27,75.512c0,0.126-0.102,0.229-0.229,0.229l0,0c-0.126,0-0.229-0.102-0.229-0.229v-0.629
				c0-0.126,0.102-0.229,0.229-0.229l0,0c0.126,0,0.229,0.102,0.229,0.229V75.512z"/>
			<path style="fill:#254254;" d="M48.534,73.367c-0.191-1.489-0.393-2.156-0.558-2.156s-0.367,0.667-0.558,2.156H48.534z"/>
			<path style="fill:#254254;" d="M39.44,73.882c0-0.063,0.051-0.114,0.114-0.114h16.779c0.063,0,0.114,0.051,0.114,0.114l0,0
				c0,0.063-0.051,0.114-0.114,0.114c0,0-6.303,1.029-8.404,1.029c-2.094,0-8.376-1.029-8.376-1.029
				C39.491,73.997,39.44,73.945,39.44,73.882L39.44,73.882z"/>
			<path style="fill:#3B5972;" d="M50.952,74.739c-0.226-1.22-1.466-2.156-2.976-2.156s-2.75,0.936-2.976,2.156H50.952z"/>
			<path style="fill:#254254;" d="M39.44,73.882c0-0.063,0.051-0.114,0.114-0.114h16.779c0.063,0,0.114,0.051,0.114,0.114l0,0
				c0,0.063-0.051,0.114-0.114,0.114H39.554C39.491,73.997,39.44,73.945,39.44,73.882L39.44,73.882z"/>
			<path style="fill:#3B5972;" d="M50.952,74.739c-0.226-1.22-1.466-2.156-2.976-2.156s-2.75,0.936-2.976,2.156
				c0,0,2.229,0.516,2.986,0.516C48.739,75.254,50.952,74.739,50.952,74.739z"/>
			<path style="fill:#254254;" d="M49.726,73.238c-0.494-0.326-1.093-0.527-1.75-0.527c-0.657,0-1.256,0.201-1.75,0.527
				c0.396,0.682,1.028,1.13,1.75,1.13C48.698,74.367,49.329,73.919,49.726,73.238z"/>
			<rect x="42.156" y="74.168" style="fill:#254254;" width="0.2" height="1.172"/>
			<path style="fill:#254254;" d="M53.675,75.512c0,0.126,0.102,0.229,0.229,0.229l0,0c0.126,0,0.229-0.102,0.229-0.229v-0.629
				c0-0.126-0.102-0.229-0.229-0.229l0,0c-0.126,0-0.229,0.102-0.229,0.229V75.512z"/>
			<rect x="53.59" y="74.168" style="fill:#254254;" width="0.2" height="1.172"/>
		</g>
	</g>
	<g>
		<polygon style="fill:#3B5972;" points="58.479,73.905 57.913,73.905 57.913,72.725 58.102,72.725 		"/>
		<polygon style="fill:#3B5972;" points="74.065,73.905 74.632,73.905 74.632,72.725 74.443,72.725 		"/>
		<g>
			<path style="fill:#254254;" d="M66.606,75.512c0,0.126-0.102,0.229-0.229,0.229l0,0c-0.126,0-0.229-0.102-0.229-0.229v-0.629
				c0-0.126,0.102-0.229,0.229-0.229l0,0c0.126,0,0.229,0.102,0.229,0.229V75.512z"/>
			<path style="fill:#254254;" d="M60.661,75.512c0,0.126-0.102,0.229-0.229,0.229l0,0c-0.126,0-0.229-0.102-0.229-0.229v-0.629
				c0-0.126,0.102-0.229,0.229-0.229l0,0c0.126,0,0.229,0.102,0.229,0.229V75.512z"/>
			<path style="fill:#254254;" d="M66.924,73.367c-0.191-1.489-0.393-2.156-0.558-2.156S66,71.878,65.809,73.367H66.924z"/>
			<path style="fill:#254254;" d="M57.831,73.882c0-0.063,0.051-0.114,0.114-0.114h16.779c0.063,0,0.114,0.051,0.114,0.114l0,0
				c0,0.063-0.051,0.114-0.114,0.114c0,0-6.303,1.029-8.404,1.029c-2.094,0-8.376-1.029-8.376-1.029
				C57.882,73.997,57.831,73.945,57.831,73.882L57.831,73.882z"/>
			<path style="fill:#3B5972;" d="M69.342,74.739c-0.226-1.22-1.466-2.156-2.976-2.156s-2.75,0.936-2.976,2.156H69.342z"/>
			<path style="fill:#254254;" d="M57.831,73.882c0-0.063,0.051-0.114,0.114-0.114h16.779c0.063,0,0.114,0.051,0.114,0.114l0,0
				c0,0.063-0.051,0.114-0.114,0.114H57.945C57.882,73.997,57.831,73.945,57.831,73.882L57.831,73.882z"/>
			<path style="fill:#3B5972;" d="M69.342,74.739c-0.226-1.22-1.466-2.156-2.976-2.156s-2.75,0.936-2.976,2.156
				c0,0,2.229,0.516,2.986,0.516C67.13,75.254,69.342,74.739,69.342,74.739z"/>
			<path style="fill:#254254;" d="M68.116,73.238c-0.494-0.326-1.093-0.527-1.75-0.527s-1.256,0.201-1.749,0.527
				c0.396,0.682,1.028,1.13,1.749,1.13C67.089,74.367,67.72,73.919,68.116,73.238z"/>
			<rect x="60.546" y="74.168" style="fill:#254254;" width="0.2" height="1.172"/>
			<path style="fill:#254254;" d="M72.066,75.512c0,0.126,0.102,0.229,0.229,0.229l0,0c0.126,0,0.229-0.102,0.229-0.229v-0.629
				c0-0.126-0.102-0.229-0.229-0.229l0,0c-0.126,0-0.229,0.102-0.229,0.229V75.512z"/>
			<rect x="71.98" y="74.168" style="fill:#254254;" width="0.2" height="1.172"/>
		</g>
	</g>
	<g>
		<polygon style="fill:#3B5972;" points="76.703,73.905 76.136,73.905 76.136,72.725 76.325,72.725 		"/>
		<polygon style="fill:#3B5972;" points="92.289,73.905 92.856,73.905 92.856,72.725 92.667,72.725 		"/>
		<g>
			<path style="fill:#254254;" d="M84.83,75.512c0,0.126-0.102,0.229-0.229,0.229l0,0c-0.126,0-0.229-0.102-0.229-0.229v-0.629
				c0-0.126,0.102-0.229,0.229-0.229l0,0c0.126,0,0.229,0.102,0.229,0.229V75.512z"/>
			<path style="fill:#254254;" d="M78.885,75.512c0,0.126-0.102,0.229-0.229,0.229l0,0c-0.126,0-0.229-0.102-0.229-0.229v-0.629
				c0-0.126,0.102-0.229,0.229-0.229l0,0c0.126,0,0.229,0.102,0.229,0.229V75.512z"/>
			<path style="fill:#254254;" d="M85.148,73.367c-0.191-1.489-0.393-2.156-0.558-2.156s-0.367,0.667-0.558,2.156H85.148z"/>
			<path style="fill:#254254;" d="M76.055,73.882c0-0.063,0.051-0.114,0.114-0.114h16.779c0.063,0,0.114,0.051,0.114,0.114l0,0
				c0,0.063-0.051,0.114-0.114,0.114c0,0-6.303,1.029-8.404,1.029c-2.094,0-8.376-1.029-8.376-1.029
				C76.106,73.997,76.055,73.945,76.055,73.882L76.055,73.882z"/>
			<path style="fill:#3B5972;" d="M87.566,74.739c-0.226-1.22-1.466-2.156-2.976-2.156s-2.75,0.936-2.976,2.156H87.566z"/>
			<path style="fill:#254254;" d="M76.055,73.882c0-0.063,0.051-0.114,0.114-0.114h16.779c0.063,0,0.114,0.051,0.114,0.114l0,0
				c0,0.063-0.051,0.114-0.114,0.114H76.169C76.106,73.997,76.055,73.945,76.055,73.882L76.055,73.882z"/>
			<path style="fill:#3B5972;" d="M87.566,74.739c-0.226-1.22-1.466-2.156-2.976-2.156s-2.75,0.936-2.976,2.156
				c0,0,2.229,0.516,2.987,0.516C85.354,75.254,87.566,74.739,87.566,74.739z"/>
			<path style="fill:#254254;" d="M86.34,73.238c-0.494-0.326-1.093-0.527-1.75-0.527c-0.657,0-1.256,0.201-1.749,0.527
				c0.396,0.682,1.028,1.13,1.749,1.13C85.312,74.367,85.944,73.919,86.34,73.238z"/>
			<rect x="78.77" y="74.168" style="fill:#254254;" width="0.2" height="1.172"/>
			<path style="fill:#254254;" d="M90.29,75.512c0,0.126,0.102,0.229,0.229,0.229l0,0c0.126,0,0.229-0.102,0.229-0.229v-0.629
				c0-0.126-0.102-0.229-0.229-0.229l0,0c-0.126,0-0.229,0.102-0.229,0.229V75.512z"/>
			<rect x="90.204" y="74.168" style="fill:#254254;" width="0.2" height="1.172"/>
		</g>
	</g>
</g>
</svg>