<?xml version="1.0" encoding="utf-8"?>
<!-- Generator: Adobe Illustrator 27.5.0, SVG Export Plug-In . SVG Version: 6.00 Build 0)  -->
<svg version="1.1" id="Layer" xmlns="http://www.w3.org/2000/svg" xmlns:xlink="http://www.w3.org/1999/xlink" x="0px" y="0px"
	 viewBox="342 262 17 21" style="enable-background:new 0 0 450 450;" xml:space="preserve">
<g>
	<g>
		<path style="fill:#254254;" d="M348.652,264.522c0,1.081,0.851,1.957,1.9,1.957s1.9-0.876,1.9-1.957
			c0-1.081-0.851-1.957-1.9-1.957S348.652,263.441,348.652,264.522z M349.564,264.522c0-0.561,0.443-1.018,0.988-1.018
			c0.545,0,0.988,0.457,0.988,1.018c0,0.561-0.443,1.018-0.988,1.018C350.008,265.54,349.564,265.083,349.564,264.522z"/>
		<g style="opacity:0.3;">
			<path style="fill:#E9F3F4;" d="M350.6,265.535c0.523-0.026,0.941-0.468,0.941-1.013c0-0.545-0.418-0.987-0.941-1.013v-0.942
				c1.027,0.026,1.853,0.89,1.853,1.955c0,1.065-0.825,1.929-1.853,1.955V265.535z"/>
		</g>
	</g>
	<g>
		<ellipse style="fill:#E9F3F4;" cx="350.578" cy="273.943" rx="7.904" ry="8.142"/>
		<path style="fill:#254254;" d="M347.042,266.663c1.064-0.55,2.264-0.862,3.536-0.862s2.472,0.312,3.536,0.862H347.042z"/>
		<path style="fill:#254254;" d="M357.703,270.425c0.468,1.005,0.744,2.122,0.773,3.304h-15.798c0.03-1.181,0.306-2.299,0.773-3.304
			H357.703z"/>
		<path style="fill:#254254;" d="M355.347,280.432h-9.539c-1.001-0.784-1.817-1.806-2.364-2.987h14.267
			C357.164,278.626,356.349,279.649,355.347,280.432z"/>
		<g style="opacity:0.3;">
			<path style="fill:#E9F3F4;" d="M350.625,265.802c4.344,0.026,7.857,3.661,7.857,8.141c0,4.481-3.513,8.115-7.857,8.141V265.802z"
				/>
		</g>
	</g>
</g>
</svg>