<?xml version="1.0" encoding="utf-8"?>
<!-- Generator: Adobe Illustrator 27.5.0, SVG Export Plug-In . SVG Version: 6.00 Build 0)  -->
<svg version="1.1" id="Layer" xmlns="http://www.w3.org/2000/svg" xmlns:xlink="http://www.w3.org/1999/xlink" x="0px" y="0px"
	 viewBox="74 312 27 37" style="enable-background:new 0 0 450 450;" xml:space="preserve">
<g>
	<path style="fill:#F2736D;" d="M85.251,320.405c0,1.135,0.92,2.054,2.054,2.054l0,0c1.135,0,2.055-0.92,2.055-2.054v-6.164
		c0-1.135-0.92-2.054-2.055-2.054l0,0c-1.134,0-2.054,0.92-2.054,2.054V320.405z"/>
	<polygon style="fill:#E9F3F4;" points="74.568,348.57 100.032,348.57 92.005,316.187 82.595,316.187 	"/>
	<polygon style="fill:#254254;" points="81.559,320.368 82.595,316.187 92.005,316.187 93.041,320.368 	"/>
	<polygon style="fill:#254254;" points="94.766,327.324 96.402,333.927 78.198,333.927 79.835,327.324 	"/>
	<polygon style="fill:#254254;" points="98.126,340.884 100.032,348.57 74.568,348.57 76.474,340.884 	"/>
	<g style="opacity:0.3;">
		<polygon style="fill:#FFFFFF;" points="87.702,316.187 92.005,316.187 100.032,348.57 87.702,348.57 		"/>
	</g>
	<path style="fill:#E9F3F4;" d="M81.142,315.422c0,0.454,0.368,0.822,0.822,0.822h10.478c0.454,0,0.822-0.368,0.822-0.822l0,0
		c0-0.454-0.368-0.822-0.822-0.822H81.964C81.51,314.601,81.142,314.969,81.142,315.422L81.142,315.422z"/>
</g>
</svg>