<?xml version="1.0" encoding="utf-8"?>
<!-- Generator: Adobe Illustrator 27.5.0, SVG Export Plug-In . SVG Version: 6.00 Build 0)  -->
<svg version="1.1" id="Layer" xmlns="http://www.w3.org/2000/svg" xmlns:xlink="http://www.w3.org/1999/xlink" x="0px" y="0px"
	 viewBox="30 133 149 59" style="enable-background:new 0 0 450 450;" xml:space="preserve">
<g>
	<g>
		<rect x="133.815" y="160.374" style="fill:#29516A;" width="0.279" height="14.505"/>
		<rect x="165.614" y="164.418" style="fill:#29516A;" width="0.279" height="4.742"/>
		<rect x="163.94" y="166.371" style="fill:#29516A;" width="0.279" height="4.742"/>
		<rect x="147.204" y="163.86" style="fill:#29516A;" width="0.279" height="4.742"/>
		<rect x="140.789" y="164.697" style="fill:#29516A;" width="0.279" height="4.742"/>
		<rect x="136.884" y="163.581" style="fill:#29516A;" width="0.279" height="4.742"/>
		<rect x="58.224" y="163.581" style="fill:#29516A;" width="0.279" height="4.742"/>
		<rect x="55.156" y="163.302" style="fill:#29516A;" width="0.279" height="4.742"/>
		<rect x="59.2" y="164" style="fill:#29516A;" width="1.674" height="6.416"/>
		<rect x="144.276" y="164.836" style="fill:#29516A;" width="1.674" height="6.416"/>
		<rect x="154.317" y="166.371" style="fill:#29516A;" width="7.829" height="6.416"/>
		<rect x="167.418" y="167.187" style="fill:#29516A;" width="3.366" height="3.666"/>
	</g>
	<g>
		<path style="fill:#6B99B5;" d="M82.724,135.641c0,1.284,1.041,2.324,2.324,2.324c1.284,0,2.325-1.041,2.325-2.324
			s-1.041-2.325-2.325-2.325C83.765,133.317,82.724,134.357,82.724,135.641z"/>
		<g>
			<path style="fill:#6B99B5;" d="M73.454,158.025c-0.119,0.765,0.426,1.388,1.219,1.388h13.932c0.911,0,1.576-0.713,1.485-1.581
				l-1.916-18.352c-0.061-0.583-0.704-1.05-1.437-1.05h-8.896c-0.733,0-1.411,0.535-1.514,1.198L73.454,158.025z"/>
			<path style="fill:#9DC0E1;" d="M84.262,155.17l-1.667-15.968c-0.032-0.307-0.228-0.58-0.511-0.771h4.653
				c0.733,0,1.376,0.467,1.437,1.05l1.638,15.69H84.262z"/>
		</g>
		<path style="fill:#6B99B5;" d="M72.059,166.672c-0.12,0.765,0.426,1.388,1.219,1.388h40.573c0.793,0,1.435-0.623,1.435-1.388
			v-18.396c0-0.663-0.594-1.198-1.327-1.198H76.447c-0.733,0-1.411,0.535-1.514,1.198L72.059,166.672z"/>
		<path style="fill:#9DC0E1;" d="M106.919,147.077h7.041c0.733,0,1.327,0.535,1.327,1.198v18.396c0,0.765-0.643,1.388-1.435,1.388
			h-6.933V147.077z"/>
		<path style="fill:#29516A;" d="M71.208,174.364c-0.11,0.846,0.494,1.537,1.35,1.537h49.156c0.855,0,1.46-0.691,1.35-1.537
			l-2.24-17.282c-0.091-0.701-0.788-1.264-1.559-1.264H75.007c-0.77,0-1.468,0.564-1.559,1.264L71.208,174.364z"/>
		<path style="fill:#466480;" d="M115.435,155.818h3.829c0.77,0,1.468,0.564,1.559,1.264l2.24,17.282
			c0.11,0.846-0.494,1.537-1.35,1.537h-4.256L115.435,155.818z"/>
		<path style="fill:#6B99B5;" d="M116.196,167.998c0,0.77,0.624,1.395,1.395,1.395h10.042c0.77,0,1.395-0.624,1.395-1.395v-5.393
			c0-0.77-0.624-1.395-1.395-1.395h-10.042c-0.77,0-1.395,0.624-1.395,1.395V167.998z"/>
		<path style="fill:#6B99B5;" d="M92.58,171.717c0,0.77,0.624,1.395,1.395,1.395h10.042c0.77,0,1.395-0.624,1.395-1.395v-5.393
			c0-0.77-0.624-1.395-1.395-1.395H93.974c-0.77,0-1.395,0.624-1.395,1.395V171.717z"/>
		<path style="fill:#6B99B5;" d="M63.57,171.531c0,0.77,0.624,1.395,1.395,1.395h10.042c0.77,0,1.395-0.624,1.395-1.395v-5.393
			c0-0.77-0.624-1.395-1.395-1.395H64.965c-0.77,0-1.395,0.625-1.395,1.395V171.531z"/>
		<path style="fill:#588399;" d="M80.864,156.096c0,0.565,0.458,1.023,1.023,1.023h25.104c0.565,0,1.023-0.458,1.023-1.023l0,0
			c0-0.565-0.458-1.023-1.023-1.023H81.887C81.322,155.074,80.864,155.532,80.864,156.096L80.864,156.096z"/>
		<rect x="111.544" y="148.193" style="fill:#254254;" width="2.607" height="2.231"/>
		<rect x="107.453" y="148.193" style="fill:#254254;" width="3.726" height="2.231"/>
		<rect x="102.246" y="148.193" style="fill:#254254;" width="4.841" height="2.231"/>
		<rect x="96.857" y="148.193" style="fill:#254254;" width="5.024" height="2.231"/>
		<rect x="83.468" y="148.565" style="fill:#254254;" width="9.856" height="1.302"/>
		<rect x="76.587" y="157.119" style="fill:#254254;" width="25.662" height="1.488"/>
		<path style="fill:#29516A;" d="M75.917,138.405c0,0.459,0.372,0.831,0.831,0.831h11.84c0.459,0,0.831-0.372,0.831-0.831l0,0
			c0-0.459-0.372-0.831-0.831-0.831h-11.84C76.289,137.574,75.917,137.946,75.917,138.405L75.917,138.405z"/>
	</g>
	<path style="fill:#466480;" d="M38.652,156.282c0,0.77,0.624,1.395,1.395,1.395h7.81c0.77,0,1.395-0.624,1.395-1.395v-1.302
		c0-0.77-0.624-1.395-1.395-1.395h-7.81c-0.77,0-1.395,0.624-1.395,1.395V156.282z"/>
	<path style="fill:#6B99B5;" d="M44.231,167.998c0,0.77-0.624,1.395-1.395,1.395h-0.372c-0.77,0-1.395-0.624-1.395-1.395v-10.414
		c0-0.77,0.625-1.395,1.395-1.395h0.372c0.77,0,1.395,0.624,1.395,1.395V167.998z"/>
	<path style="fill:#588399;" d="M51.855,163.216c0,0.843-0.679,1.456-1.505,1.37l-6.13-0.639c-0.717-0.075-1.291-0.759-1.291-1.529
		v-14.877c0-0.77,0.574-1.443,1.291-1.503l6.13-0.515c0.826-0.069,1.505,0.557,1.505,1.401V163.216z"/>
	<path style="fill:#254254;" d="M34.189,184.083h78.29c0.05-3.808,3.151-6.88,6.971-6.88h45.56c3.851,0,6.973,3.122,6.973,6.973
		s-3.122,6.973-6.973,6.973h-26.864H119.45H34.189c-1.951,0-3.533-1.582-3.533-3.533C30.656,185.665,32.238,184.083,34.189,184.083z
		"/>
	<path style="fill:#588399;" d="M39.396,184.466c0,0.2,0.355,0.361,0.793,0.361h68.941c9.298,0,34.583-0.386,54.671-7.438
		c8.547-3.001,20.528-6.079,12.273-7.81c-0.908-0.19-37.631-2.789-40.167-2.789H40.512c-0.616,0-1.116,0.695-1.116,1.532V184.466z"
		/>
	<path style="fill:#254254;" d="M168.961,174.46c-20.088,7.052-45.373,7.438-54.671,7.438H45.349c-0.438,0-0.793-0.161-0.793-0.36
		v-14.749h-4.044c-0.616,0-1.116,0.695-1.116,1.532v16.145c0,0.2,0.355,0.361,0.793,0.361h68.941c9.298,0,34.583-0.386,54.671-7.438
		c6.416-2.252,14.766-4.549,15.04-6.286C175.908,172.182,172.19,173.326,168.961,174.46z"/>
	<path style="fill:#6B99B5;" d="M155.061,174.968c4.091,0,10.951,1.643,8.74,2.421c-20.083,7.066-45.374,7.438-54.671,7.438H33.494
		c-0.438,0-0.793-0.161-0.793-0.361l6.694-9.498H155.061z"/>
	<path style="fill:#466480;" d="M111.547,174.227c0,0.616,0.5,1.116,1.116,1.116h9.856c0.616,0,1.116-0.5,1.116-1.116l0,0
		c0-0.616-0.5-1.116-1.116-1.116h-9.856C112.047,173.111,111.547,173.611,111.547,174.227L111.547,174.227z"/>
	<path style="fill:#466480;" d="M74.077,174.227c0,0.616,0.5,1.116,1.116,1.116h9.856c0.616,0,1.116-0.5,1.116-1.116l0,0
		c0-0.616-0.5-1.116-1.116-1.116h-9.856C74.576,173.111,74.077,173.611,74.077,174.227L74.077,174.227z"/>
	<rect x="124.75" y="177.389" style="fill:#466480;" width="2.046" height="4.277"/>
	<rect x="121.775" y="177.389" style="fill:#466480;" width="2.046" height="4.277"/>
	<rect x="44.789" y="177.389" style="fill:#466480;" width="2.046" height="4.277"/>
	<rect x="41.813" y="177.389" style="fill:#466480;" width="2.046" height="4.277"/>
	<path style="fill:#162B35;" d="M31.298,185.589c0.349,1.585,1.759,2.771,3.449,2.771h85.261h18.695h26.864
		c2.879,0,5.35-1.745,6.414-4.234c0,0.017,0.001,0.033,0.001,0.05c0,3.851-3.122,6.973-6.973,6.973h-26.864H119.45H34.189
		c-1.951,0-3.533-1.582-3.533-3.533C30.656,186.861,30.895,186.163,31.298,185.589z"/>
	<rect x="88.165" y="151.362" style="fill:#588399;" width="7.078" height="0.708"/>
	<rect x="102.587" y="152.708" style="fill:#588399;" width="3.451" height="1.289"/>
	<rect x="97.898" y="152.973" style="fill:#588399;" width="3.451" height="1.289"/>
	<path style="fill:#E4355C;" d="M177.386,170.694c-0.935-0.191-38.76-2.789-41.372-2.789H39.439
		c0.133-0.639,0.562-1.116,1.072-1.116h95.396c2.536,0,39.259,2.599,40.167,2.789c2.017,0.423,2.824,0.927,2.769,1.49
		C178.449,170.938,177.968,170.813,177.386,170.694z"/>
	
		<rect x="122.658" y="157.65" transform="matrix(0.8985 -0.439 0.439 0.8985 -56.4428 71.334)" style="fill:#1E4559;" width="6.766" height="0.154"/>
	
		<rect x="124.253" y="157.651" transform="matrix(0.8985 -0.439 0.439 0.8985 -56.6357 71.0919)" style="fill:#29516A;" width="2.303" height="0.716"/>
	<path style="fill:#9DC0E1;" d="M119.181,161.21c-0.165-0.722,0.292-1.499,0.781-2.304c0.672-1.106,1.26-1.879,2.278-1.678
		l1.721,0.341c0.841,0.167,1.131,0.823,1.503,1.873c0.211,0.595,0.239,1.219,0.079,1.768H119.181z"/>
	<path style="fill:#F2736D;" d="M163.801,177.389c-0.356,0.125-0.714,0.248-1.072,0.369c-2.015-0.469-4.692-0.837-6.72-0.837H38.02
		l1.376-1.952h115.665C159.152,174.968,166.012,176.611,163.801,177.389z"/>
	<path style="fill:#6B99B5;" d="M51.055,149.708l-8.126,0.468v-2.634c0-0.77,0.574-1.443,1.291-1.503l6.13-0.515
		c0.826-0.069,1.505,0.557,1.505,1.401v2.844C51.606,149.715,51.337,149.692,51.055,149.708z"/>
	<path style="fill:#447284;" d="M51.737,160.867c0.04,0.003,0.079,0.003,0.118,0.004v2.344c0,0.843-0.679,1.456-1.505,1.37
		l-6.13-0.639c-0.717-0.075-1.291-0.759-1.291-1.529v-2.19L51.737,160.867z"/>
</g>
</svg>