<?xml version="1.0" encoding="utf-8"?>
<!-- Generator: Adobe Illustrator 27.5.0, SVG Export Plug-In . SVG Version: 6.00 Build 0)  -->
<svg viewBox="35 370 241 49" xmlns="http://www.w3.org/2000/svg">
<g>
	<path style="fill:#254254;" d="M54.954,415.019c-0.065,0.165-0.292,0.298-0.509,0.298H40.837c-0.217,0-0.393-0.133-0.393-0.298
		v-11.224c0-0.283,0.233-0.515,0.521-0.515h18.061c0.288,0,0.43,0.232,0.319,0.515L54.954,415.019z"/>
	<path style="fill:#254254;" d="M64.124,399.728c0.416,1.77-0.764,3.271-2.656,3.271H51.193c-1.892,0-3.425,2.331-3.425,0.562
		v-17.723c0-1.083,1.131-1.931,2.527-1.931h7.581c1.396,0,2.726,0.848,2.981,1.931L64.124,399.728z"/>
	<path style="fill:#008096;" d="M49.662,385.171h7.581c1.396,0,2.726,0.848,2.981,1.931l3.268,13.89
		c0.097,0.414,0.104,0.812,0.038,1.18c0.572-0.605,0.819-1.484,0.593-2.444l-3.268-13.889c-0.255-1.083-1.586-1.931-2.981-1.931
		h-7.581c-1.387,0-2.513,0.838-2.526,1.913C48.231,385.42,48.907,385.171,49.662,385.171z"/>
	<g>
		<path style="fill:#29516A;" d="M132.804,377.871c0,0.465-0.377,0.842-0.842,0.842l0,0c-0.465,0-0.842-0.377-0.842-0.842v-7.019
			c0-0.465,0.377-0.842,0.842-0.842l0,0c0.465,0,0.842,0.377,0.842,0.842V377.871z"/>
		<path style="fill:#29516A;" d="M137.051,379.977c0,0.465-0.377,0.842-0.842,0.842l0,0c-0.465,0-0.842-0.377-0.842-0.842v-7.019
			c0-0.465,0.377-0.842,0.842-0.842l0,0c0.465,0,0.842,0.377,0.842,0.842V379.977z"/>
		<path style="fill:#29516A;" d="M140.139,379.275c0,0.465-0.377,0.842-0.842,0.842l0,0c-0.465,0-0.842-0.377-0.842-0.842v-7.019
			c0-0.465,0.377-0.842,0.842-0.842l0,0c0.465,0,0.842,0.377,0.842,0.842V379.275z"/>
		<path style="fill:#29516A;" d="M154.226,377.047c0,0.201-0.163,0.364-0.364,0.364l0,0c-0.201,0-0.364-0.163-0.364-0.364v-6.986
			c0-0.201,0.163-0.364,0.364-0.364l0,0c0.201,0,0.364,0.163,0.364,0.364V377.047z"/>
		<path style="fill:#29516A;" d="M156.331,376.731c0,0.201-0.163,0.364-0.364,0.364l0,0c-0.201,0-0.364-0.163-0.364-0.364v-6.986
			c0-0.201,0.163-0.364,0.364-0.364l0,0c0.201,0,0.364,0.163,0.364,0.364V376.731z"/>
	</g>
	<path style="fill:#008096;" d="M160.916,387.98c0,1.465-1.221,2.665-2.72,2.665h-33.96c-1.299,0-2.176-1.11-1.968-2.465
		l1.523-9.902c0.19-1.238,1.335-2.262,2.565-2.3l32.007-0.977c1.406-0.043,2.552,0.988,2.552,2.316V387.98z"/>
	<path style="fill:#008096;" d="M274.886,403.483c0,6.897-5.591,12.489-12.489,12.489H107.828c-6.897,0-59.362-5.591-59.362-12.489
		l0,0c0-6.897,52.465-12.489,59.362-12.489h154.569C269.295,390.994,274.886,396.585,274.886,403.483L274.886,403.483z"/>
	<path style="fill:#254254;" d="M112.487,390.994c2.951,3.42,10.207,5.839,18.696,5.839h15.571c8.49,0,15.745-2.419,18.696-5.839
		H112.487z"/>
	<path style="fill:#F2736D;" d="M53.652,399.66c-2.099,0.787-3.669,1.608-4.501,2.455h225.66c-0.092-0.847-0.272-1.667-0.525-2.455
		H53.652z"/>
	<path style="fill:#F2736D;" d="M164.392,390.994c-0.233-2.868-4.693-4.817-12.283-4.817h-15.446
		c-7.587,0-16.304,1.951-22.815,4.817H164.392z"/>
	<path style="fill:#29516A;" d="M50.037,401.397c-1.007,0.678-1.571,1.375-1.571,2.085c0,6.897,52.465,12.489,59.362,12.489h154.569
		c6.897,0,12.489-5.591,12.489-12.489c0-0.711-0.063-1.407-0.177-2.085H50.037z"/>
	<path style="fill:#F2736D;" d="M160.555,376.104c-0.446-0.688-1.26-1.132-2.191-1.103l-32.007,0.977
		c-0.908,0.028-1.768,0.596-2.233,1.389L160.555,376.104z"/>
	<path style="fill:#254254;" d="M265.095,395.837c0,0.233-0.189,0.421-0.421,0.421h-19.783c-0.233,0-0.421-0.189-0.421-0.421v-0.52
		c0-0.233,0.189-0.421,0.421-0.421h19.783c0.233,0,0.421,0.188,0.421,0.421V395.837z"/>
	<path style="fill:#E4355C;" d="M262.929,396.292c0,0.233-0.189,0.421-0.421,0.421h-7.471c-0.233,0-0.421-0.189-0.421-0.421v-1.441
		c0-0.233,0.189-0.421,0.421-0.421h7.471c0.233,0,0.421,0.189,0.421,0.421V396.292z"/>
	<g>
		<path style="fill:#254254;" d="M241.062,399.139c0,0.158,0.128,0.286,0.285,0.286h2.855c0.158,0,0.285-0.128,0.285-0.286v-0.714
			c0-0.158-0.128-0.285-0.285-0.285h-2.855c-0.158,0-0.285,0.128-0.285,0.285V399.139z"/>
		<path style="fill:#254254;" d="M237.084,399.139c0,0.158,0.128,0.286,0.285,0.286h2.855c0.158,0,0.286-0.128,0.286-0.286v-0.714
			c0-0.158-0.128-0.285-0.286-0.285h-2.855c-0.158,0-0.285,0.128-0.285,0.285V399.139z"/>
		<path style="fill:#254254;" d="M233.106,399.139c0,0.158,0.128,0.286,0.286,0.286h2.855c0.158,0,0.286-0.128,0.286-0.286v-0.714
			c0-0.158-0.128-0.285-0.286-0.285h-2.855c-0.158,0-0.286,0.128-0.286,0.285V399.139z"/>
		<path style="fill:#254254;" d="M229.128,399.139c0,0.158,0.128,0.286,0.285,0.286h2.855c0.158,0,0.285-0.128,0.285-0.286v-0.714
			c0-0.158-0.128-0.285-0.285-0.285h-2.855c-0.158,0-0.285,0.128-0.285,0.285V399.139z"/>
		<path style="fill:#254254;" d="M225.15,399.139c0,0.158,0.128,0.286,0.286,0.286h2.855c0.158,0,0.285-0.128,0.285-0.286v-0.714
			c0-0.158-0.128-0.285-0.285-0.285h-2.855c-0.158,0-0.286,0.128-0.286,0.285V399.139z"/>
		<path style="fill:#254254;" d="M221.172,399.139c0,0.158,0.128,0.286,0.286,0.286h2.855c0.158,0,0.285-0.128,0.285-0.286v-0.714
			c0-0.158-0.128-0.285-0.285-0.285h-2.855c-0.158,0-0.286,0.128-0.286,0.285V399.139z"/>
	</g>
	<g>
		<path style="fill:#254254;" d="M205.081,399.139c0,0.158,0.128,0.286,0.285,0.286h2.855c0.158,0,0.286-0.128,0.286-0.286v-0.714
			c0-0.158-0.128-0.285-0.286-0.285h-2.855c-0.158,0-0.285,0.128-0.285,0.285V399.139z"/>
		<path style="fill:#254254;" d="M201.103,399.139c0,0.158,0.128,0.286,0.285,0.286h2.855c0.158,0,0.286-0.128,0.286-0.286v-0.714
			c0-0.158-0.128-0.285-0.286-0.285h-2.855c-0.158,0-0.285,0.128-0.285,0.285V399.139z"/>
		<path style="fill:#254254;" d="M197.125,399.139c0,0.158,0.128,0.286,0.285,0.286h2.855c0.158,0,0.286-0.128,0.286-0.286v-0.714
			c0-0.158-0.128-0.285-0.286-0.285h-2.855c-0.158,0-0.285,0.128-0.285,0.285V399.139z"/>
		<path style="fill:#254254;" d="M193.147,399.139c0,0.158,0.128,0.286,0.285,0.286h2.855c0.158,0,0.285-0.128,0.285-0.286v-0.714
			c0-0.158-0.128-0.285-0.285-0.285h-2.855c-0.158,0-0.285,0.128-0.285,0.285V399.139z"/>
		<path style="fill:#254254;" d="M189.169,399.139c0,0.158,0.128,0.286,0.286,0.286h2.855c0.158,0,0.286-0.128,0.286-0.286v-0.714
			c0-0.158-0.128-0.285-0.286-0.285h-2.855c-0.158,0-0.286,0.128-0.286,0.285V399.139z"/>
		<path style="fill:#254254;" d="M185.191,399.139c0,0.158,0.128,0.286,0.286,0.286h2.855c0.158,0,0.286-0.128,0.286-0.286v-0.714
			c0-0.158-0.128-0.285-0.286-0.285h-2.855c-0.158,0-0.286,0.128-0.286,0.285V399.139z"/>
	</g>
	<g>
		<path style="fill:#254254;" d="M169.101,399.139c0,0.158,0.128,0.286,0.285,0.286h2.855c0.158,0,0.286-0.128,0.286-0.286v-0.714
			c0-0.158-0.128-0.285-0.286-0.285h-2.855c-0.158,0-0.285,0.128-0.285,0.285V399.139z"/>
		<path style="fill:#254254;" d="M165.123,399.139c0,0.158,0.128,0.286,0.286,0.286h2.855c0.158,0,0.286-0.128,0.286-0.286v-0.714
			c0-0.158-0.128-0.285-0.286-0.285h-2.855c-0.158,0-0.286,0.128-0.286,0.285V399.139z"/>
		<path style="fill:#254254;" d="M161.145,399.139c0,0.158,0.128,0.286,0.285,0.286h2.855c0.158,0,0.285-0.128,0.285-0.286v-0.714
			c0-0.158-0.128-0.285-0.285-0.285h-2.855c-0.158,0-0.285,0.128-0.285,0.285V399.139z"/>
		<path style="fill:#254254;" d="M157.167,399.139c0,0.158,0.128,0.286,0.285,0.286h2.855c0.158,0,0.285-0.128,0.285-0.286v-0.714
			c0-0.158-0.128-0.285-0.285-0.285h-2.855c-0.158,0-0.285,0.128-0.285,0.285V399.139z"/>
		<path style="fill:#254254;" d="M153.189,399.139c0,0.158,0.128,0.286,0.285,0.286h2.855c0.158,0,0.286-0.128,0.286-0.286v-0.714
			c0-0.158-0.128-0.285-0.286-0.285h-2.855c-0.158,0-0.285,0.128-0.285,0.285V399.139z"/>
		<path style="fill:#254254;" d="M149.211,399.139c0,0.158,0.128,0.286,0.285,0.286h2.855c0.158,0,0.285-0.128,0.285-0.286v-0.714
			c0-0.158-0.128-0.285-0.285-0.285h-2.855c-0.158,0-0.285,0.128-0.285,0.285V399.139z"/>
	</g>
	<g>
		<path style="fill:#162D38;" d="M202.179,402.719c0,0.158,0.128,0.285,0.285,0.285h2.855c0.158,0,0.285-0.128,0.285-0.285v-0.714
			c0-0.158-0.128-0.285-0.285-0.285h-2.855c-0.158,0-0.285,0.128-0.285,0.285V402.719z"/>
		<path style="fill:#162D38;" d="M198.201,402.719c0,0.158,0.128,0.285,0.285,0.285h2.855c0.158,0,0.286-0.128,0.286-0.285v-0.714
			c0-0.158-0.128-0.285-0.286-0.285h-2.855c-0.158,0-0.285,0.128-0.285,0.285V402.719z"/>
		<path style="fill:#162D38;" d="M194.223,402.719c0,0.158,0.128,0.285,0.285,0.285h2.855c0.158,0,0.285-0.128,0.285-0.285v-0.714
			c0-0.158-0.128-0.285-0.285-0.285h-2.855c-0.158,0-0.285,0.128-0.285,0.285V402.719z"/>
		<path style="fill:#162D38;" d="M190.245,402.719c0,0.158,0.128,0.285,0.285,0.285h2.855c0.158,0,0.285-0.128,0.285-0.285v-0.714
			c0-0.158-0.128-0.285-0.285-0.285h-2.855c-0.158,0-0.285,0.128-0.285,0.285V402.719z"/>
		<path style="fill:#162D38;" d="M186.267,402.719c0,0.158,0.128,0.285,0.286,0.285h2.855c0.158,0,0.286-0.128,0.286-0.285v-0.714
			c0-0.158-0.128-0.285-0.286-0.285h-2.855c-0.158,0-0.286,0.128-0.286,0.285V402.719z"/>
		<path style="fill:#162D38;" d="M182.289,402.719c0,0.158,0.128,0.285,0.286,0.285h2.855c0.158,0,0.285-0.128,0.285-0.285v-0.714
			c0-0.158-0.128-0.285-0.285-0.285h-2.855c-0.158,0-0.286,0.128-0.286,0.285V402.719z"/>
	</g>
	<g>
		<path style="fill:#162D38;" d="M172.418,402.719c0,0.158,0.128,0.285,0.285,0.285h2.855c0.158,0,0.285-0.128,0.285-0.285v-0.714
			c0-0.158-0.128-0.285-0.285-0.285h-2.855c-0.158,0-0.285,0.128-0.285,0.285V402.719z"/>
		<path style="fill:#162D38;" d="M168.44,402.719c0,0.158,0.128,0.285,0.286,0.285h2.855c0.158,0,0.285-0.128,0.285-0.285v-0.714
			c0-0.158-0.128-0.285-0.285-0.285h-2.855c-0.158,0-0.286,0.128-0.286,0.285V402.719z"/>
		<path style="fill:#162D38;" d="M164.462,402.719c0,0.158,0.128,0.285,0.286,0.285h2.855c0.158,0,0.285-0.128,0.285-0.285v-0.714
			c0-0.158-0.128-0.285-0.285-0.285h-2.855c-0.158,0-0.286,0.128-0.286,0.285V402.719z"/>
		<path style="fill:#162D38;" d="M160.484,402.719c0,0.158,0.128,0.285,0.286,0.285h2.855c0.158,0,0.285-0.128,0.285-0.285v-0.714
			c0-0.158-0.128-0.285-0.285-0.285h-2.855c-0.158,0-0.286,0.128-0.286,0.285V402.719z"/>
		<path style="fill:#162D38;" d="M156.506,402.719c0,0.158,0.128,0.285,0.285,0.285h2.855c0.158,0,0.285-0.128,0.285-0.285v-0.714
			c0-0.158-0.128-0.285-0.285-0.285h-2.855c-0.158,0-0.285,0.128-0.285,0.285V402.719z"/>
		<path style="fill:#162D38;" d="M152.528,402.719c0,0.158,0.128,0.285,0.286,0.285h2.855c0.158,0,0.286-0.128,0.286-0.285v-0.714
			c0-0.158-0.128-0.285-0.286-0.285h-2.855c-0.158,0-0.286,0.128-0.286,0.285V402.719z"/>
	</g>
	<g>
		<path style="fill:#162D38;" d="M142.657,402.719c0,0.158,0.128,0.285,0.286,0.285h2.855c0.158,0,0.285-0.128,0.285-0.285v-0.714
			c0-0.158-0.128-0.285-0.285-0.285h-2.855c-0.158,0-0.286,0.128-0.286,0.285V402.719z"/>
		<path style="fill:#162D38;" d="M138.679,402.719c0,0.158,0.128,0.285,0.285,0.285h2.855c0.158,0,0.285-0.128,0.285-0.285v-0.714
			c0-0.158-0.128-0.285-0.285-0.285h-2.855c-0.158,0-0.285,0.128-0.285,0.285V402.719z"/>
		<path style="fill:#162D38;" d="M134.701,402.719c0,0.158,0.128,0.285,0.286,0.285h2.855c0.158,0,0.285-0.128,0.285-0.285v-0.714
			c0-0.158-0.128-0.285-0.285-0.285h-2.855c-0.158,0-0.286,0.128-0.286,0.285V402.719z"/>
		<path style="fill:#162D38;" d="M130.723,402.719c0,0.158,0.128,0.285,0.286,0.285h2.855c0.158,0,0.285-0.128,0.285-0.285v-0.714
			c0-0.158-0.128-0.285-0.285-0.285h-2.855c-0.158,0-0.286,0.128-0.286,0.285V402.719z"/>
		<path style="fill:#162D38;" d="M126.745,402.719c0,0.158,0.128,0.285,0.285,0.285h2.855c0.158,0,0.285-0.128,0.285-0.285v-0.714
			c0-0.158-0.128-0.285-0.285-0.285h-2.855c-0.158,0-0.285,0.128-0.285,0.285V402.719z"/>
		<path style="fill:#162D38;" d="M122.767,402.719c0,0.158,0.128,0.285,0.285,0.285h2.855c0.158,0,0.285-0.128,0.285-0.285v-0.714
			c0-0.158-0.128-0.285-0.285-0.285h-2.855c-0.158,0-0.285,0.128-0.285,0.285V402.719z"/>
	</g>
	<path style="fill:#254254;" d="M264.643,410.295H95.572c-4.742,0-29.176-2.276-46.674-5.732c4.99,6.391,52.397,11.408,58.93,11.408
		h154.569c5.942,0,10.912-4.152,12.175-9.711C272.082,408.743,268.556,410.295,264.643,410.295z"/>
	<g>
		<path style="fill:#162D38;" d="M114.347,402.719c0,0.158,0.128,0.285,0.285,0.285h2.855c0.158,0,0.285-0.128,0.285-0.285v-0.714
			c0-0.158-0.128-0.285-0.285-0.285h-2.855c-0.158,0-0.285,0.128-0.285,0.285V402.719z"/>
		<path style="fill:#162D38;" d="M110.369,402.719c0,0.158,0.128,0.285,0.285,0.285h2.855c0.158,0,0.285-0.128,0.285-0.285v-0.714
			c0-0.158-0.128-0.285-0.285-0.285h-2.855c-0.158,0-0.285,0.128-0.285,0.285V402.719z"/>
		<path style="fill:#162D38;" d="M106.391,402.719c0,0.158,0.128,0.285,0.285,0.285h2.855c0.158,0,0.285-0.128,0.285-0.285v-0.714
			c0-0.158-0.128-0.285-0.285-0.285h-2.855c-0.158,0-0.285,0.128-0.285,0.285V402.719z"/>
		<path style="fill:#162D38;" d="M102.413,402.719c0,0.158,0.128,0.285,0.285,0.285h2.855c0.158,0,0.285-0.128,0.285-0.285v-0.714
			c0-0.158-0.128-0.285-0.285-0.285h-2.855c-0.158,0-0.285,0.128-0.285,0.285V402.719z"/>
		<path style="fill:#162D38;" d="M98.435,402.719c0,0.158,0.128,0.285,0.285,0.285h2.855c0.158,0,0.285-0.128,0.285-0.285v-0.714
			c0-0.158-0.128-0.285-0.285-0.285H98.72c-0.158,0-0.285,0.128-0.285,0.285V402.719z"/>
		<path style="fill:#162D38;" d="M94.456,402.719c0,0.158,0.128,0.285,0.285,0.285h2.855c0.158,0,0.285-0.128,0.285-0.285v-0.714
			c0-0.158-0.128-0.285-0.285-0.285h-2.855c-0.158,0-0.285,0.128-0.285,0.285V402.719z"/>
	</g>
	<g>
		<path style="fill:#162D38;" d="M85.147,402.719c0,0.158,0.128,0.285,0.285,0.285h2.855c0.158,0,0.285-0.128,0.285-0.285v-0.714
			c0-0.158-0.128-0.285-0.285-0.285h-2.855c-0.158,0-0.285,0.128-0.285,0.285V402.719z"/>
		<path style="fill:#162D38;" d="M81.169,402.719c0,0.158,0.128,0.285,0.285,0.285h2.855c0.158,0,0.285-0.128,0.285-0.285v-0.714
			c0-0.158-0.128-0.285-0.285-0.285h-2.855c-0.158,0-0.285,0.128-0.285,0.285V402.719z"/>
		<path style="fill:#162D38;" d="M77.191,402.719c0,0.158,0.128,0.285,0.285,0.285h2.855c0.158,0,0.285-0.128,0.285-0.285v-0.714
			c0-0.158-0.128-0.285-0.285-0.285h-2.855c-0.158,0-0.285,0.128-0.285,0.285V402.719z"/>
		<path style="fill:#162D38;" d="M73.213,402.719c0,0.158,0.128,0.285,0.285,0.285h2.855c0.158,0,0.285-0.128,0.285-0.285v-0.714
			c0-0.158-0.128-0.285-0.285-0.285h-2.855c-0.158,0-0.285,0.128-0.285,0.285V402.719z"/>
		<path style="fill:#162D38;" d="M69.235,402.719c0,0.158,0.128,0.285,0.285,0.285h2.855c0.158,0,0.285-0.128,0.285-0.285v-0.714
			c0-0.158-0.128-0.285-0.285-0.285H69.52c-0.158,0-0.285,0.128-0.285,0.285V402.719z"/>
		<path style="fill:#162D38;" d="M65.257,402.719c0,0.158,0.128,0.285,0.285,0.285h2.855c0.158,0,0.285-0.128,0.285-0.285v-0.714
			c0-0.158-0.128-0.285-0.285-0.285h-2.855c-0.158,0-0.285,0.128-0.285,0.285V402.719z"/>
	</g>
	<path style="fill:#008096;" d="M60.098,402.081H42.433c-0.895,0-7.024,0.726-7.024,1.621c0,0.895,6.128,1.621,7.024,1.621h17.665
		V402.081z"/>
	<path style="fill:#E4355C;" d="M112.615,392.047c0,0.233-0.188,0.421-0.421,0.421h-5.364c-0.233,0-0.421-0.188-0.421-0.421v-0.216
		c0-0.233,0.189-0.421,0.421-0.421h5.364c0.233,0,0.421,0.189,0.421,0.421V392.047z"/>
	<path style="fill:#E4355C;" d="M106.055,392.082c0,0.233-0.189,0.421-0.421,0.421h-1.553c-0.233,0-0.421-0.189-0.421-0.421v-0.215
		c0-0.233,0.188-0.421,0.421-0.421h1.553c0.233,0,0.421,0.189,0.421,0.421V392.082z"/>
	<path style="fill:#E4355C;" d="M174.945,392.047c0,0.233-0.189,0.421-0.421,0.421h-5.364c-0.233,0-0.421-0.188-0.421-0.421v-0.216
		c0-0.233,0.189-0.421,0.421-0.421h5.364c0.233,0,0.421,0.189,0.421,0.421V392.047z"/>
	<path style="fill:#E4355C;" d="M168.385,392.082c0,0.233-0.188,0.421-0.421,0.421h-1.554c-0.233,0-0.421-0.189-0.421-0.421v-0.215
		c0-0.233,0.189-0.421,0.421-0.421h1.554c0.233,0,0.421,0.189,0.421,0.421V392.082z"/>
	<path style="fill:#E4355C;" d="M184.632,392.047c0,0.233-0.189,0.421-0.421,0.421h-5.364c-0.233,0-0.421-0.188-0.421-0.421v-0.216
		c0-0.233,0.189-0.421,0.421-0.421h5.364c0.233,0,0.421,0.189,0.421,0.421V392.047z"/>
	<path style="fill:#E4355C;" d="M178.072,392.082c0,0.233-0.189,0.421-0.421,0.421h-1.554c-0.233,0-0.421-0.189-0.421-0.421v-0.215
		c0-0.233,0.189-0.421,0.421-0.421h1.554c0.233,0,0.421,0.189,0.421,0.421V392.082z"/>
	<path style="fill:#E4355C;" d="M194.318,392.047c0,0.233-0.189,0.421-0.421,0.421h-5.364c-0.232,0-0.421-0.188-0.421-0.421v-0.216
		c0-0.233,0.189-0.421,0.421-0.421h5.364c0.233,0,0.421,0.189,0.421,0.421V392.047z"/>
	<path style="fill:#E4355C;" d="M187.759,392.082c0,0.233-0.189,0.421-0.421,0.421h-1.554c-0.233,0-0.421-0.189-0.421-0.421v-0.215
		c0-0.233,0.189-0.421,0.421-0.421h1.554c0.233,0,0.421,0.189,0.421,0.421V392.082z"/>
	<path style="fill:#E4355C;" d="M204.005,392.047c0,0.233-0.189,0.421-0.421,0.421h-5.364c-0.233,0-0.421-0.188-0.421-0.421v-0.216
		c0-0.233,0.188-0.421,0.421-0.421h5.364c0.232,0,0.421,0.189,0.421,0.421V392.047z"/>
	<path style="fill:#E4355C;" d="M197.445,392.082c0,0.233-0.189,0.421-0.421,0.421h-1.554c-0.233,0-0.421-0.189-0.421-0.421v-0.215
		c0-0.233,0.189-0.421,0.421-0.421h1.554c0.233,0,0.421,0.189,0.421,0.421V392.082z"/>
</g>
</svg>